<?xml version="1.0" encoding="UTF-8" standalone="no"?>
<!-- Generator: Adobe Illustrator 16.0.0, SVG Export Plug-In . SVG Version: 6.00 Build 0)  -->

<svg
   xmlns:dc="http://purl.org/dc/elements/1.1/"
   xmlns:cc="http://creativecommons.org/ns#"
   xmlns:rdf="http://www.w3.org/1999/02/22-rdf-syntax-ns#"
   xmlns:svg="http://www.w3.org/2000/svg"
   xmlns="http://www.w3.org/2000/svg"
   xmlns:xlink="http://www.w3.org/1999/xlink"
   xmlns:sodipodi="http://sodipodi.sourceforge.net/DTD/sodipodi-0.dtd"
   xmlns:inkscape="http://www.inkscape.org/namespaces/inkscape"
   version="1.1"
   id="svg3207"
   inkscape:export-ydpi="428.57144"
   inkscape:export-xdpi="428.57144"
   inkscape:export-filename="C:\Users\Jeremy\Desktop\AgileFranceConference-Logo-Orgapng.png"
   sodipodi:docname="AgileFranceConference-2013-Logos.svg"
   inkscape:version="0.48.3.1 r9886"
   x="0px"
   y="0px"
   width="210px"
   height="210px"
   viewBox="0 0 210 210"
   enable-background="new 0 0 210 210"
   xml:space="preserve"><metadata
     id="metadata87"><rdf:RDF><cc:Work
         rdf:about=""><dc:format>image/svg+xml</dc:format><dc:type
           rdf:resource="http://purl.org/dc/dcmitype/StillImage" /><dc:title /></cc:Work></rdf:RDF></metadata><defs
     id="defs85"><linearGradient
       id="linearGradient4060"><stop
         id="stop4062"
         offset="0"
         style="stop-color:#a33107;stop-opacity:1;" /><stop
         id="stop4064"
         offset="1"
         style="stop-color:#eec258;stop-opacity:1;" /></linearGradient><linearGradient
       id="linearGradient4052"><stop
         style="stop-color:#ffe11e;stop-opacity:1;"
         offset="0"
         id="stop4054" /><stop
         style="stop-color:#ce4a1c;stop-opacity:1;"
         offset="1"
         id="stop4056" /></linearGradient><linearGradient
       id="linearGradient4044"><stop
         id="stop4046"
         offset="0"
         style="stop-color:#ff6127;stop-opacity:1;" /><stop
         id="stop4048"
         offset="1"
         style="stop-color:#ffcf02;stop-opacity:1;" /></linearGradient><linearGradient
       id="linearGradient4036"><stop
         id="stop4038"
         offset="0"
         style="stop-color:#ff7f52;stop-opacity:1;" /><stop
         id="stop4040"
         offset="1"
         style="stop-color:#bb0055;stop-opacity:1;" /></linearGradient><filter
       color-interpolation-filters="sRGB"
       inkscape:collect="always"
       id="filter3940-3"><feGaussianBlur
         inkscape:collect="always"
         stdDeviation="1.3050738"
         id="feGaussianBlur3942-5" /></filter><linearGradient
       gradientTransform="translate(-229.81018,-83.089812)"
       inkscape:collect="always"
       xlink:href="#linearGradient3871"
       id="linearGradient3877"
       x1="298.19583"
       y1="83.018852"
       x2="285.09543"
       y2="131.91017"
       gradientUnits="userSpaceOnUse" /><linearGradient
       id="linearGradient3871"><stop
         style="stop-color:#ff52f9;stop-opacity:1;"
         offset="0"
         id="stop3873" /><stop
         style="stop-color:#bb0055;stop-opacity:1;"
         offset="1"
         id="stop3875" /></linearGradient><linearGradient
       gradientTransform="translate(-229.81018,-83.089812)"
       inkscape:collect="always"
       xlink:href="#linearGradient3871"
       id="linearGradient3897"
       x1="310.91211"
       y1="150.21513"
       x2="311.66971"
       y2="171.68959"
       gradientUnits="userSpaceOnUse" /><linearGradient
       id="linearGradient3049"><stop
         style="stop-color:#ff52f9;stop-opacity:1;"
         offset="0"
         id="stop3051" /><stop
         style="stop-color:#bb0055;stop-opacity:1;"
         offset="1"
         id="stop3053" /></linearGradient><linearGradient
       y2="83.035179"
       x2="237.37373"
       y1="90.806618"
       x1="229.60229"
       gradientTransform="translate(0.44681774,0.05190948)"
       gradientUnits="userSpaceOnUse"
       id="linearGradient3083"
       xlink:href="#linearGradient3871"
       inkscape:collect="always" /><linearGradient
       id="linearGradient3056"><stop
         style="stop-color:#ff52f9;stop-opacity:1;"
         offset="0"
         id="stop3058" /><stop
         style="stop-color:#bb0055;stop-opacity:1;"
         offset="1"
         id="stop3060" /></linearGradient><linearGradient
       y2="83.035179"
       x2="237.37373"
       y1="90.806618"
       x1="229.60229"
       gradientTransform="translate(-229.36824,-83.089812)"
       gradientUnits="userSpaceOnUse"
       id="linearGradient3069"
       xlink:href="#linearGradient3871"
       inkscape:collect="always" /><linearGradient
       inkscape:collect="always"
       xlink:href="#linearGradient3871"
       id="linearGradient3163"
       gradientUnits="userSpaceOnUse"
       gradientTransform="translate(-108.86484,-82.524253)"
       x1="229.60229"
       y1="90.806618"
       x2="237.37373"
       y2="83.035179" /><linearGradient
       inkscape:collect="always"
       xlink:href="#linearGradient3871"
       id="linearGradient3165"
       gradientUnits="userSpaceOnUse"
       gradientTransform="translate(-109.30678,-82.524253)"
       x1="310.91211"
       y1="150.21513"
       x2="311.66971"
       y2="171.68959" /><linearGradient
       inkscape:collect="always"
       xlink:href="#linearGradient3871"
       id="linearGradient3167"
       gradientUnits="userSpaceOnUse"
       gradientTransform="translate(-109.30678,-82.524253)"
       x1="298.19583"
       y1="83.018852"
       x2="285.09543"
       y2="131.91017" /><linearGradient
       inkscape:collect="always"
       xlink:href="#linearGradient4052"
       id="linearGradient4042"
       gradientUnits="userSpaceOnUse"
       gradientTransform="translate(-108.86484,-82.524253)"
       x1="229.60229"
       y1="90.806618"
       x2="237.37373"
       y2="83.035179" /><linearGradient
       inkscape:collect="always"
       xlink:href="#linearGradient4044"
       id="linearGradient4050"
       gradientUnits="userSpaceOnUse"
       gradientTransform="translate(-109.30678,-82.524253)"
       x1="298.19583"
       y1="83.018852"
       x2="285.09543"
       y2="131.91017" /><linearGradient
       inkscape:collect="always"
       xlink:href="#linearGradient4060"
       id="linearGradient4058"
       gradientUnits="userSpaceOnUse"
       gradientTransform="translate(-109.30678,-82.524253)"
       x1="310.91211"
       y1="150.21513"
       x2="311.66971"
       y2="171.68959" /></defs><filter
     id="filter3940"
     color-interpolation-filters="sRGB"
     inkscape:collect="always">
  <feGaussianBlur
   stdDeviation="1.3050738"
   id="feGaussianBlur3942"
   inkscape:collect="always" />
</filter><filter
     id="filter3651"
     color-interpolation-filters="sRGB"
     inkscape:collect="always">
	<feGaussianBlur
   stdDeviation="1.139826"
   id="feGaussianBlur3653"
   inkscape:collect="always" />
</filter><filter
     id="filter3639"
     color-interpolation-filters="sRGB"
     inkscape:collect="always">
	<feGaussianBlur
   stdDeviation="1.1345707"
   id="feGaussianBlur3641"
   inkscape:collect="always" />
</filter><filter
     id="filter3635"
     color-interpolation-filters="sRGB"
     inkscape:collect="always">
	<feGaussianBlur
   stdDeviation="1.2339038"
   id="feGaussianBlur3637"
   inkscape:collect="always" />
</filter><sodipodi:namedview
     fit-margin-left="0"
     fit-margin-top="0"
     showgrid="false"
     inkscape:cy="114.21999"
     inkscape:cx="165.08386"
     inkscape:zoom="3.959798"
     borderopacity="1.0"
     bordercolor="#666666"
     pagecolor="#ffffff"
     id="base"
     fit-margin-bottom="0"
     fit-margin-right="0"
     inkscape:window-maximized="1"
     inkscape:window-y="25"
     inkscape:window-x="0"
     inkscape:window-height="1031"
     inkscape:window-width="1920"
     inkscape:current-layer="layer1"
     inkscape:document-units="px"
     inkscape:pageshadow="2"
     inkscape:pageopacity="0.0">
	</sodipodi:namedview><g
     id="layer1"
     transform="translate(-119.99328,-71.661241)"
     inkscape:groupmode="layer"
     inkscape:label="Base"
     style="display:inline"><rect
   id="rect3211"
   x="125.04417"
   y="79.802002"
   width="196.55583"
   height="197.56599"
   style="fill:#ffffff" /><rect
   id="rect4149"
   x="130.60001"
   y="79.802002"
   inkscape:export-ydpi="90"
   inkscape:export-xdpi="90"
   inkscape:export-filename="/media/DATA/agile-france-2012/logo-agile-france-2012.png"
   width="191"
   height="191"
   style="fill:none">
	</rect><g
   id="g3258"
   transform="translate(5.7282087,0.39764514)">
		<text
   transform="matrix(0.9659,-0.2588,0.2588,0.9659,137.562,166.516)"
   font-size="62.9701"
   id="text16"
   style="font-size:62.9701004px;font-family:WhatDoWeDoAllDay">agile</text>


		<text
   transform="matrix(0.962,-0.2732,0.2732,0.962,160.0634,249.8085)"
   font-size="45.8811"
   id="text18"
   style="font-size:45.8810997px;font-family:WhatDoWeDoAllDay">france</text>


		
			<text
   transform="matrix(0.962,-0.2732,0.2732,0.962,160.0634,249.8085)"
   font-size="45.8811"
   id="text20"
   style="font-size:45.8810997px;fill:none;stroke:#000000;stroke-width:1.30429995;font-family:WhatDoWeDoAllDay">france</text>


		<g
   id="path4139"
   inkscape:connector-curvature="0"
   sodipodi:nodetypes="ccscscsc"
   style="filter:url(#filter3651)">
			<path
   d="m 136.683,179.961 39.971,-9.909 c 0,0 1.042,6.278 3.862,14.274 1.657,4.699 6.028,13.676 6.028,13.676 0,0 -9.967,4.403 -16.483,6.599 -7.976,2.687 -24.453,6.308 -24.453,6.308 0,0 -2.859,-5.985 -4.267,-10.763 -2.956,-10.029 -4.967,-20.12 -4.658,-20.185 l 0,0 z"
   id="path23"
   inkscape:connector-curvature="0"
   style="fill:#7c7c7c" />
			<path
   d="m 136.683,179.961 39.971,-9.909 c 0,0 1.042,6.278 3.862,14.274 1.657,4.699 6.028,13.676 6.028,13.676 0,0 -9.967,4.403 -16.483,6.599 -7.976,2.687 -24.453,6.308 -24.453,6.308 0,0 -2.859,-5.985 -4.267,-10.763 -2.956,-10.029 -4.967,-20.12 -4.658,-20.185 l 0,0 z"
   id="path25"
   inkscape:connector-curvature="0"
   style="fill:none;stroke:#7c7c7c;stroke-width:2.97420001;stroke-linecap:round;stroke-linejoin:round" />
		</g>
		
			<linearGradient
   id="path4141_1_"
   gradientUnits="userSpaceOnUse"
   x1="775.70837"
   y1="-1241.6115"
   x2="800.40198"
   y2="-1328.3569"
   gradientTransform="matrix(0.3734,-0.0695,-0.0695,-0.3734,-223.2512,-235.2121)">
			<stop
   offset="0"
   style="stop-color:#3B75BB"
   id="stop28" />
			<stop
   offset="1"
   style="stop-color:#2E5B94"
   id="stop30" />
		</linearGradient>
		
			<path
   id="path4141"
   inkscape:connector-curvature="0"
   sodipodi:nodetypes="ccscscsc"
   d="m 135.943,178.214 40.218,-8.935 c 0,0 0.837,6.191 3.394,14.108 1.502,4.652 5.575,13.564 5.575,13.564 0,0 -10.091,4.127 -16.667,6.153 -8.048,2.479 -24.612,5.707 -24.612,5.707 0,0 -2.661,-5.94 -3.912,-10.665 -2.625,-9.916 -4.306,-19.875 -3.996,-19.932 l 0,0 z"
   style="fill:url(#path4141_1_);stroke:#000000;stroke-width:2.65879989;stroke-linecap:round;stroke-linejoin:round" />
		<g
   id="path4143"
   inkscape:connector-curvature="0"
   sodipodi:nodetypes="ccscscsc"
   style="filter:url(#filter3639)">
			<path
   d="m 193.384,174.513 39.688,-7.676 c 0,0 0.725,6.322 3.113,14.457 1.404,4.781 5.268,13.98 5.268,13.98 0,0 -9.987,3.842 -16.484,5.672 -7.953,2.239 -24.292,4.941 -24.292,4.941 0,0 -2.522,-6.131 -3.678,-10.977 -2.425,-10.169 -3.921,-20.35 -3.615,-20.397 l 0,0 z"
   id="path34"
   inkscape:connector-curvature="0"
   style="fill:#7c7c7c" />
			<path
   d="m 193.384,174.513 39.688,-7.676 c 0,0 0.725,6.322 3.113,14.457 1.404,4.781 5.268,13.98 5.268,13.98 0,0 -9.987,3.842 -16.484,5.672 -7.953,2.239 -24.292,4.941 -24.292,4.941 0,0 -2.522,-6.131 -3.678,-10.977 -2.425,-10.169 -3.921,-20.35 -3.615,-20.397 l 0,0 z"
   id="path36"
   inkscape:connector-curvature="0"
   style="fill:none;stroke:#7c7c7c;stroke-width:2.94679999;stroke-linecap:round;stroke-linejoin:round" />
		</g>
		
			<linearGradient
   id="path4145_1_"
   gradientUnits="userSpaceOnUse"
   x1="1085.1108"
   y1="-1217.212"
   x2="1111.2334"
   y2="-1303.959"
   gradientTransform="matrix(0.377,-0.0466,-0.0466,-0.377,-257.3566,-239.1285)">
			<stop
   offset="0"
   style="stop-color:#F7F7FF"
   id="stop39" />
			<stop
   offset="1"
   style="stop-color:#E7E7FF"
   id="stop41" />
		</linearGradient>
		
			<path
   id="path4145"
   inkscape:connector-curvature="0"
   sodipodi:nodetypes="ccscscsc"
   d="m 192.122,172.747 40.688,-6.464 c 0,0 0.459,6.231 2.527,14.288 1.215,4.735 4.737,13.88 4.737,13.88 0,0 -10.324,3.503 -17.011,5.125 -8.185,1.984 -24.915,4.194 -24.915,4.194 0,0 -2.293,-6.092 -3.254,-10.883 -2.015,-10.058 -3.085,-20.101 -2.772,-20.14 l 0,0 z"
   style="fill:url(#path4145_1_);stroke:#000000;stroke-width:2.65879989;stroke-linecap:round;stroke-linejoin:round" />
		<g
   id="path4147"
   inkscape:connector-curvature="0"
   sodipodi:nodetypes="ccscscsc"
   style="filter:url(#filter3635)">
			<path
   d="m 240.222,152.86 37.281,-12.659 c 0,0 1.503,5.935 4.841,13.377 1.962,4.373 6.856,12.633 6.856,12.633 0,0 -9.139,5.008 -15.168,7.627 -7.383,3.206 -22.788,7.979 -22.788,7.979 0,0 -3.212,-5.511 -4.942,-9.979 -3.632,-9.377 -6.369,-18.891 -6.08,-18.978 l 0,0 z"
   id="path45"
   inkscape:connector-curvature="0"
   style="fill:#7c7c7c" />
			<path
   d="m 240.222,152.86 37.281,-12.659 c 0,0 1.503,5.935 4.841,13.377 1.962,4.373 6.856,12.633 6.856,12.633 0,0 -9.139,5.008 -15.168,7.627 -7.383,3.206 -22.788,7.979 -22.788,7.979 0,0 -3.212,-5.511 -4.942,-9.979 -3.632,-9.377 -6.369,-18.891 -6.08,-18.978 l 0,0 z"
   id="path47"
   inkscape:connector-curvature="0"
   style="fill:none;stroke:#7c7c7c;stroke-width:4;stroke-linecap:round;stroke-linejoin:round" />
		</g>
		
			<linearGradient
   id="path4149_1_"
   gradientUnits="userSpaceOnUse"
   x1="937.47021"
   y1="-1269.9777"
   x2="963.59222"
   y2="-1356.723"
   gradientTransform="matrix(0.3646,-0.1066,-0.1066,-0.3646,-222.6011,-218.3133)">
			<stop
   offset="0"
   style="stop-color:#EA0000"
   id="stop50" />
			<stop
   offset="1"
   style="stop-color:#C80000"
   id="stop52" />
		</linearGradient>
		
			<path
   id="path4149"
   inkscape:connector-curvature="0"
   sodipodi:nodetypes="ccscscsc"
   d="m 239.038,150.937 39.12,-12.921 c 0,0 1.454,6.076 4.791,13.697 1.961,4.478 6.906,12.938 6.906,12.938 0,0 -9.627,5.117 -15.965,7.792 -7.76,3.274 -23.916,8.145 -23.916,8.145 0,0 -3.244,-5.644 -4.962,-10.219 -3.606,-9.603 -6.277,-19.344 -5.974,-19.432 l 0,0 z"
   style="fill:url(#path4149_1_);stroke:#000000;stroke-width:2.65879989;stroke-linecap:round;stroke-linejoin:round" />
	</g><path
   id="path3802"
   inkscape:connector-curvature="0"
   sodipodi:nodetypes="cc"
   d="m 162.4,227.345 c 33.216,8.9 129.795,-25.749 149.502,-45.457"
   style="fill:none" /><linearGradient
   id="rect3813-3_1_"
   gradientUnits="userSpaceOnUse"
   x1="587.37219"
   y1="-169.2216"
   x2="595.14392"
   y2="-161.44991"
   gradientTransform="matrix(1,0,0,-1,-339.54,-82.0457)">
		<stop
   offset="0"
   style="stop-color:#50F1FF"
   id="stop57" />
		<stop
   offset="1"
   style="stop-color:#00B1BB"
   id="stop59" />
	</linearGradient><linearGradient
   id="rect3813-3-9_1_"
   gradientUnits="userSpaceOnUse"
   x1="665.58899"
   y1="-221.30949"
   x2="666.34662"
   y2="-242.78419"
   gradientTransform="matrix(1,0,0,-1,-339.9824,-82.0457)">
		<stop
   offset="0"
   style="stop-color:#50F1FF"
   id="stop63" />
		<stop
   offset="1"
   style="stop-color:#00B1BB"
   id="stop65" />
	</linearGradient><linearGradient
   id="rect3813_1_"
   gradientUnits="userSpaceOnUse"
   x1="640.33899"
   y1="-151.9926"
   x2="627.23859"
   y2="-200.8839"
   gradientTransform="matrix(1,0,0,-1,-339.9824,-82.0457)">
		<stop
   offset="0"
   style="stop-color:#50F1FF"
   id="stop69" />
		<stop
   offset="1"
   style="stop-color:#00B1BB"
   id="stop71" />
	</linearGradient><text
   transform="translate(221.2614,264.2355)"
   font-size="24"
   id="text79"
   style="font-size:24px;font-style:normal;font-variant:normal;font-weight:bold;font-stretch:normal;fill:#c50000;font-family:Verdana;-inkscape-font-specification:Verdana Bold">2014</text>

</g><g
     inkscape:groupmode="layer"
     id="layer3"
     inkscape:label="Orateur"
     style="display:none"
     sodipodi:insensitive="true"><path
   transform="translate(-119.99328,-71.661241)"
   id="rect3813-3"
   inkscape:connector-curvature="0"
   d="m 247.984,72.385 -7.563,7.563 h 29.281 l 7.563,-7.563 h -29.281 z"
   style="fill:url(#rect3813-3_1_)" /><path
   transform="translate(-119.99328,-71.661241)"
   id="rect3813-3-9"
   inkscape:connector-curvature="0"
   d="m 329.636,124.635 -7.781,7.781 v 29.281 l 7.781,-7.781 v -29.281 z"
   style="fill:url(#rect3813-3-9_1_)" /><path
   transform="translate(-119.99328,-71.661241)"
   id="rect3813"
   inkscape:connector-curvature="0"
   sodipodi:nodetypes="ccccc"
   d="m 247.997,72.283 81.604,81.603 v -43.934 l -37.67,-37.668 h -43.934 z"
   style="fill:url(#rect3813_1_)" /><text
   transform="matrix(0.7071,0.7071,-0.7071,0.7071,151.22652,10.588359)"
   font-size="21.806"
   id="text74"
   style="font-size:21.80599976px;filter:url(#filter3940);font-family:Arial-BoldMT">orateur</text>

<text
   transform="matrix(0.7071,0.7071,-0.7071,0.7071,150.85352,10.096159)"
   font-size="21.806"
   id="text76"
   style="font-size:21.80599976px;fill:#ffffff;font-family:Arial-BoldMT">orateur</text>

</g><g
     inkscape:groupmode="layer"
     id="layer2"
     inkscape:label="Inscrit"
     style="display:none"
     sodipodi:insensitive="true"><path
   style="fill:url(#linearGradient3163);fill-opacity:1;stroke:none"
   d="m 128.0659,0.66823823 -7.5625,7.56250007 29.28125,0 7.5625,-7.56250007 -29.28125,0 z"
   id="rect3813-3-98"
   inkscape:connector-curvature="0" /><path
   style="fill:url(#linearGradient3165);fill-opacity:1;stroke:none"
   d="m 209.71774,52.918227 -7.78125,7.78125 0,29.28125 7.78125,-7.78125 0,-29.28125 z"
   id="rect3813-3-9-4"
   inkscape:connector-curvature="0" /><path
   style="fill:url(#linearGradient3167);fill-opacity:1;stroke:none"
   d="m 128.07935,0.56555923 81.60268,81.60266777 0,-43.933919 -37.66876,-37.66874877 z"
   id="rect3813-0"
   inkscape:connector-curvature="0"
   sodipodi:nodetypes="ccccc" /><text
   xml:space="preserve"
   style="font-size:21.80596161px;font-style:normal;font-weight:normal;line-height:125%;letter-spacing:0px;word-spacing:0px;fill:#000000;fill-opacity:1;stroke:none;filter:url(#filter3940-3);font-family:Sans"
   x="250.53639"
   y="-118.83348"
   id="text3867-6"
   sodipodi:linespacing="125%"
   transform="matrix(0.70710678,0.70710678,-0.70710678,0.70710678,-103.05424,-75.766638)"><tspan
     sodipodi:role="line"
     id="tspan3869-3"
     x="250.53639"
     y="-118.83348"
     style="font-size:21.80596161px;font-style:normal;font-variant:normal;font-weight:bold;font-stretch:normal;text-align:start;line-height:125%;writing-mode:lr-tb;text-anchor:start;fill:#000000;fill-opacity:1;stroke:none;font-family:Ubuntu Condensed;-inkscape-font-specification:'Ubuntu Condensed, Bold'">inscrit</tspan></text>

<text
   xml:space="preserve"
   style="font-size:21.80596161px;font-style:normal;font-weight:normal;line-height:125%;letter-spacing:0px;word-spacing:0px;fill:#000000;fill-opacity:1;stroke:none;font-family:Sans"
   x="123.47924"
   y="-99.623016"
   id="text3867"
   sodipodi:linespacing="125%"
   transform="matrix(0.70710678,0.70710678,-0.70710678,0.70710678,0,0)"><tspan
     sodipodi:role="line"
     id="tspan3869"
     x="123.47924"
     y="-99.623016"
     style="font-size:21.80596161px;font-style:normal;font-variant:normal;font-weight:bold;font-stretch:normal;text-align:start;line-height:125%;writing-mode:lr-tb;text-anchor:start;fill:#ffffff;font-family:Ubuntu Condensed;-inkscape-font-specification:'Ubuntu Condensed, Bold'">inscrit</tspan></text>

</g><g
     style="display:inline"
     inkscape:label="Orga"
     id="g3252"
     inkscape:groupmode="layer">

</g><g
     id="g81">
	<path
   fill="none"
   stroke="#C50000"
   stroke-width="3"
   d="M175.59,192.5c0,4.4-3.6,8-8,8H104c-4.4,0-8-3.6-8-8v-16.25   c0-4.4,3.6-8,8-8h63.59c4.4,0,8,3.6,8,8V192.5z"
   id="path83" />
</g></svg>