<?xml version="1.0" encoding="UTF-8" standalone="no"?>
<!-- Created with Inkscape (http://www.inkscape.org/) -->
<svg
   xmlns:dc="http://purl.org/dc/elements/1.1/"
   xmlns:cc="http://creativecommons.org/ns#"
   xmlns:rdf="http://www.w3.org/1999/02/22-rdf-syntax-ns#"
   xmlns:svg="http://www.w3.org/2000/svg"
   xmlns="http://www.w3.org/2000/svg"
   xmlns:xlink="http://www.w3.org/1999/xlink"
   xmlns:sodipodi="http://sodipodi.sourceforge.net/DTD/sodipodi-0.dtd"
   xmlns:inkscape="http://www.inkscape.org/namespaces/inkscape"
   width="220"
   height="270"
   id="svg2446"
   sodipodi:version="0.32"
   inkscape:version="0.46"
   version="1.0"
   sodipodi:docname="flocage.svg"
   inkscape:output_extension="org.inkscape.output.svg.inkscape"
   inkscape:export-filename="D:\agile-france-badge\gitrepo\agile-france-publicity\flocage.png"
   inkscape:export-xdpi="300"
   inkscape:export-ydpi="300">
  <defs
     id="defs2448">
    <linearGradient
       id="linearGradient8164-760">
      <stop
         id="stop3865"
         offset="0"
         style="stop-color:#3d3d3d;stop-opacity:1;" />
      <stop
         id="stop3867"
         offset="1"
         style="stop-color:#333333;stop-opacity:1;" />
    </linearGradient>
    <linearGradient
       id="linearGradient8178-190">
      <stop
         style="stop-color:#f2f2f2;stop-opacity:1;"
         offset="0"
         id="stop3859" />
      <stop
         style="stop-color:#dcdcdc;stop-opacity:1;"
         offset="1"
         id="stop3861" />
    </linearGradient>
    <linearGradient
       id="linearGradient8154-514">
      <stop
         id="stop3853"
         offset="0"
         style="stop-color:#5e5e5e;stop-opacity:1;" />
      <stop
         id="stop3855"
         offset="1"
         style="stop-color:#464646;stop-opacity:1;" />
    </linearGradient>
    <filter
       id="filter3651"
       inkscape:collect="always">
      <feGaussianBlur
         id="feGaussianBlur3653"
         stdDeviation="1.139826"
         inkscape:collect="always" />
    </filter>
    <filter
       id="filter3639"
       inkscape:collect="always">
      <feGaussianBlur
         id="feGaussianBlur3641"
         stdDeviation="1.1345707"
         inkscape:collect="always" />
    </filter>
    <filter
       id="filter3635"
       inkscape:collect="always">
      <feGaussianBlur
         id="feGaussianBlur3637"
         stdDeviation="1.2339038"
         inkscape:collect="always" />
    </filter>
    <linearGradient
       id="linearGradient8154">
      <stop
         id="stop8156"
         offset="0"
         style="stop-color:#3465a4;stop-opacity:1;" />
      <stop
         id="stop8158"
         offset="1"
         style="stop-color:#274c7c;stop-opacity:1;" />
    </linearGradient>
    <linearGradient
       id="linearGradient8164">
      <stop
         id="stop8166"
         offset="0"
         style="stop-color:#cd0000;stop-opacity:1;" />
      <stop
         id="stop8168"
         offset="1"
         style="stop-color:#aa0000;stop-opacity:1;" />
    </linearGradient>
    <linearGradient
       id="linearGradient8178">
      <stop
         style="stop-color:#f0f0ff;stop-opacity:1;"
         offset="0"
         id="stop8180" />
      <stop
         style="stop-color:#d7d7ff;stop-opacity:1;"
         offset="1"
         id="stop8182" />
    </linearGradient>
    <linearGradient
       inkscape:collect="always"
       xlink:href="#linearGradient8164"
       id="linearGradient8679"
       gradientUnits="userSpaceOnUse"
       gradientTransform="matrix(0.3339415,-7.5935501e-3,7.5935501e-3,0.3339415,212.82678,515.61519)"
       x1="530.68823"
       y1="575.30054"
       x2="556.8103"
       y2="662.04608" />
    <linearGradient
       inkscape:collect="always"
       xlink:href="#linearGradient8178"
       id="linearGradient8683"
       gradientUnits="userSpaceOnUse"
       gradientTransform="matrix(0.33082,4.6182053e-2,-4.6182053e-2,0.33082,200.67341,498.99954)"
       x1="530.68823"
       y1="575.30054"
       x2="556.8103"
       y2="662.04608" />
    <linearGradient
       inkscape:collect="always"
       xlink:href="#linearGradient8154"
       id="linearGradient8687"
       gradientUnits="userSpaceOnUse"
       gradientTransform="matrix(0.333021,2.5913459e-2,-2.5913459e-2,0.333021,224.14816,506.45612)"
       x1="285.32883"
       y1="574.29041"
       x2="310.02237"
       y2="661.03595" />
    <linearGradient
       inkscape:collect="always"
       xlink:href="#linearGradient8164-760"
       id="linearGradient8707"
       gradientUnits="userSpaceOnUse"
       gradientTransform="matrix(0.3339415,-7.5935501e-3,7.5935501e-3,0.3339415,431.25981,689.76005)"
       x1="530.68823"
       y1="575.30054"
       x2="556.8103"
       y2="662.04608" />
    <linearGradient
       inkscape:collect="always"
       xlink:href="#linearGradient8178-190"
       id="linearGradient8710"
       gradientUnits="userSpaceOnUse"
       gradientTransform="matrix(0.33082,4.6182053e-2,-4.6182053e-2,0.33082,419.10644,673.14439)"
       x1="530.68823"
       y1="575.30054"
       x2="556.8103"
       y2="662.04608" />
    <linearGradient
       inkscape:collect="always"
       xlink:href="#linearGradient8154-514"
       id="linearGradient8713"
       gradientUnits="userSpaceOnUse"
       gradientTransform="matrix(0.333021,2.5913459e-2,-2.5913459e-2,0.333021,442.5812,680.60097)"
       x1="285.32883"
       y1="574.29041"
       x2="310.02237"
       y2="661.03595" />
    <linearGradient
       inkscape:collect="always"
       xlink:href="#linearGradient8164-760"
       id="linearGradient8729"
       gradientUnits="userSpaceOnUse"
       gradientTransform="matrix(0.3339415,-7.5935501e-3,7.5935501e-3,0.3339415,431.25985,515.61524)"
       x1="530.68823"
       y1="575.30054"
       x2="556.8103"
       y2="662.04608" />
    <linearGradient
       inkscape:collect="always"
       xlink:href="#linearGradient8178-190"
       id="linearGradient8733"
       gradientUnits="userSpaceOnUse"
       gradientTransform="matrix(0.33082,4.6182053e-2,-4.6182053e-2,0.33082,419.10647,498.99958)"
       x1="530.68823"
       y1="575.30054"
       x2="556.8103"
       y2="662.04608" />
    <linearGradient
       inkscape:collect="always"
       xlink:href="#linearGradient8154-514"
       id="linearGradient8737"
       gradientUnits="userSpaceOnUse"
       gradientTransform="matrix(0.333021,2.5913459e-2,-2.5913459e-2,0.333021,442.58123,506.45617)"
       x1="285.32883"
       y1="574.29041"
       x2="310.02237"
       y2="661.03595" />
    <linearGradient
       inkscape:collect="always"
       xlink:href="#linearGradient8164"
       id="linearGradient8746"
       gradientUnits="userSpaceOnUse"
       gradientTransform="matrix(0.3339415,-7.5935501e-3,7.5935501e-3,0.3339415,212.82676,689.76002)"
       x1="530.68823"
       y1="575.30054"
       x2="556.8103"
       y2="662.04608" />
    <linearGradient
       inkscape:collect="always"
       xlink:href="#linearGradient8178"
       id="linearGradient8749"
       gradientUnits="userSpaceOnUse"
       gradientTransform="matrix(0.33082,4.6182053e-2,-4.6182053e-2,0.33082,200.67339,673.14436)"
       x1="530.68823"
       y1="575.30054"
       x2="556.8103"
       y2="662.04608" />
    <linearGradient
       inkscape:collect="always"
       xlink:href="#linearGradient8154"
       id="linearGradient8752"
       gradientUnits="userSpaceOnUse"
       gradientTransform="matrix(0.333021,2.5913459e-2,-2.5913459e-2,0.333021,224.14814,680.60095)"
       x1="285.32883"
       y1="574.29041"
       x2="310.02237"
       y2="661.03595" />
    <linearGradient
       inkscape:collect="always"
       xlink:href="#linearGradient8154"
       id="linearGradient8836"
       gradientUnits="userSpaceOnUse"
       gradientTransform="matrix(0.3715991,-8.9015021e-2,8.9015021e-2,0.3715991,110.10703,219.24271)"
       x1="285.32883"
       y1="574.29041"
       x2="310.02237"
       y2="661.03595" />
    <linearGradient
       inkscape:collect="always"
       xlink:href="#linearGradient8178"
       id="linearGradient8838"
       gradientUnits="userSpaceOnUse"
       gradientTransform="matrix(0.3763378,-6.6178866e-2,6.6178866e-2,0.3763378,81.931197,219.38948)"
       x1="530.68823"
       y1="575.30054"
       x2="556.8103"
       y2="662.04608" />
    <linearGradient
       inkscape:collect="always"
       xlink:href="#linearGradient8164"
       id="linearGradient8840"
       gradientUnits="userSpaceOnUse"
       gradientTransform="matrix(0.3608068,-0.1258098,0.1258098,0.3608068,101.00815,233.19696)"
       x1="530.68823"
       y1="575.30054"
       x2="556.8103"
       y2="662.04608" />
  </defs>
  <sodipodi:namedview
     id="base"
     pagecolor="#ffffff"
     bordercolor="#666666"
     borderopacity="1.0"
     inkscape:pageopacity="0.0"
     inkscape:pageshadow="2"
     inkscape:zoom="0.35"
     inkscape:cx="207.41074"
     inkscape:cy="108.95307"
     inkscape:document-units="px"
     inkscape:current-layer="layer1"
     showgrid="false"
     inkscape:window-width="1400"
     inkscape:window-height="1006"
     inkscape:window-x="-4"
     inkscape:window-y="-4" />
  <metadata
     id="metadata2451">
    <rdf:RDF>
      <cc:Work
         rdf:about="">
        <dc:format>image/svg+xml</dc:format>
        <dc:type
           rdf:resource="http://purl.org/dc/dcmitype/StillImage" />
      </cc:Work>
    </rdf:RDF>
  </metadata>
  <g
     inkscape:label="Calque 1"
     inkscape:groupmode="layer"
     id="layer1"
     transform="translate(-211.89722,-257.71501)">
    <g
       id="g2825"
       transform="matrix(3.1124113,0,0,3.1124113,-653.72452,-1059.6155)">
      <path
         sodipodi:nodetypes="cccccccccccccccccccccccccccccccccccccccccccccccccccccccccccccccccccccccccccc"
         id="path2508"
         d="M 310.79416,493.28148 C 309.28133,493.21949 307.44388,494.39824 307.61327,496.04966 C 307.7545,496.74833 309.43343,496.40447 308.30532,496.22865 C 309.39501,495.61849 310.62286,493.81223 312.08795,495.24937 C 313.17679,494.73612 311.85901,495.43888 312.48805,496.12357 C 312.02273,497.07862 312.31751,496.96533 313.25644,496.74586 C 311.45618,497.13434 310.43442,498.76302 309.00896,499.7863 C 308.27288,500.53583 306.91627,500.98436 307.24559,502.23298 C 306.97298,503.12232 307.98777,502.73028 308.52543,502.81313 C 310.09384,502.81682 311.66226,502.82051 313.23068,502.82419 C 314.52689,502.87446 313.94252,500.4287 312.63664,501.35202 C 312.12194,501.50328 311.94566,501.264 310.93516,501.34803 C 310.15262,501.33586 308.80897,501.53077 310.25634,500.70147 C 310.79294,500.19771 312.33197,499.00681 312.19183,498.90767 C 311.54613,499.31786 309.77829,499.93196 311.39287,499.13302 C 313.07406,498.66589 314.57078,496.84584 313.73578,495.07246 C 313.24033,493.93712 312.01655,493.24297 310.79416,493.28148 z M 319.69913,493.3024 C 317.42151,493.29592 316.34675,495.88729 316.49411,497.85522 C 316.45956,499.11221 316.48026,500.43705 317.2094,501.52364 C 318.06367,501.29938 319.24012,501.39819 318.22463,500.3674 C 317.81895,499.13442 317.94614,497.78 318.05928,496.50649 C 318.18613,494.62861 320.43481,494.44001 321.22495,495.58854 C 322.37419,494.98508 321.69331,495.75462 321.73408,495.56511 C 322.41873,495.28492 320.35631,495.88114 321.34606,496.56952 C 322.13631,495.90342 323.26367,496.01216 321.88584,496.68569 C 321.14042,496.74491 321.43118,498.27431 321.53651,498.64972 C 321.13758,499.8415 321.29316,501.65649 319.90879,501.85016 C 319.16833,502.14874 317.03533,502.4934 318.87771,502.9468 C 320.64708,503.5036 322.34731,502.11292 322.70494,500.40079 C 322.99501,498.95092 323.02835,497.39253 322.69987,495.94529 C 322.26798,494.60288 321.2819,493.20381 319.69913,493.3024 z M 329.28202,493.32491 C 328.47641,493.82714 327.17925,494.66535 325.86523,495.09788 C 326.61268,494.57334 329.26754,493.17774 327.15098,493.87822 C 326.25753,493.98594 324.51795,494.583 325.75324,495.61288 C 326.35364,495.92192 327.51716,494.98067 327.80629,495.43743 C 328.26006,495.54154 329.70601,494.58499 329.28149,493.55071 C 329.28167,493.47544 329.28184,493.40017 329.28202,493.32491 z M 337.33671,493.34382 C 336.20812,493.17014 336.89416,494.01884 335.91027,494.04138 C 336.97691,492.78474 334.54916,494.57417 334.6035,495.32454 C 333.95127,496.83856 334.07386,498.57187 334.26477,500.1703 C 334.59534,501.902 336.18298,503.56932 338.06511,503.00789 C 340.14166,502.40966 340.67643,499.96298 340.55444,498.05357 C 340.70088,496.07646 339.70356,493.29125 337.33671,493.34382 z M 320.47952,493.70639 C 320.59907,494.16351 318.15411,494.48164 319.77843,493.97102 L 320.12416,493.84126 L 320.47952,493.70639 z M 337.34474,494.81461 C 338.90659,494.94208 339.14899,496.84137 339.07206,498.10536 C 339.11253,499.37906 339.06522,501.08155 337.65519,501.58441 C 335.95225,501.85386 335.47878,499.74462 335.6012,498.43615 C 335.56571,497.12829 335.57324,495.37744 337.02598,494.84888 L 337.34474,494.81461 z M 329.27816,494.96801 C 328.3852,495.34239 327.49583,495.75378 327.80297,496.85297 C 327.17953,498.33318 330.05344,496.64255 328.55527,497.52722 C 327.45595,497.59106 327.87494,498.61861 327.79701,499.391 C 327.79544,500.05654 327.79389,500.72209 327.79232,501.38763 C 326.98671,501.48815 325.94081,501.09164 325.37349,501.81193 C 325.08466,503.15627 326.74769,502.81419 327.57632,502.85788 C 328.78243,502.83134 329.99766,502.92578 331.19746,502.81414 C 332.67618,501.79837 330.64079,501.14068 329.66124,501.39202 C 328.89497,501.56345 329.41516,500.45445 329.26631,500.01134 C 329.27026,498.33024 329.27421,496.64912 329.27816,494.96801 z M 312.19602,498.15668 C 311.63441,498.54507 309.23314,499.46023 310.93786,498.64792 C 311.35698,498.48348 311.77637,498.31973 312.19602,498.15668 z M 322.42205,498.31859 C 322.32176,498.35289 321.97031,498.49746 322.42205,498.31859 z M 317.64954,500.03093 C 317.04919,500.46204 317.26542,500.14398 317.64954,500.03093 z M 338.28176,501.91784 C 338.19706,502.29494 337.95235,501.82044 338.28176,501.91784 z"
         style="font-size:40px;font-style:normal;font-variant:normal;font-weight:normal;font-stretch:normal;text-align:start;line-height:125%;writing-mode:lr-tb;text-anchor:start;fill:#980101;fill-opacity:1;stroke:none;stroke-width:1px;stroke-linecap:butt;stroke-linejoin:miter;stroke-opacity:1;font-family:Bitstream Vera Sans;-inkscape-font-specification:Bitstream Vera Sans" />
      <path
         id="path2510"
         d="M 323.58254,507.41906 C 324.10559,507.41211 324.63114,507.39745 325.14489,507.3752 C 325.47805,507.02819 325.76471,506.6675 326.05642,506.30759 C 326.12095,506.47848 326.18876,506.64578 326.26688,506.81328 C 325.99523,506.99355 325.72595,507.17494 325.45499,507.35567 C 327.3014,507.26446 329.07536,507.08178 330.75952,506.80754 C 330.75533,506.78717 330.75189,506.76641 330.74759,506.74606 C 330.82857,506.45713 330.92587,506.17351 331.02866,505.88715 C 331.22886,505.99304 331.42822,506.09691 331.62842,506.20277 C 331.40591,506.39187 331.19269,506.58087 330.9776,506.77383 C 332.40342,506.53423 333.75991,506.23321 335.02773,505.87771 C 334.58435,505.54388 334.58491,505.63673 336.86056,505.30448 C 337.44772,505.10037 338.01029,504.8835 338.54588,504.65476 C 339.53689,504.23152 340.25482,503.8821 341.05021,503.37775 C 341.04709,503.36341 339.87034,503.34926 340.06629,503.17364 C 340.07781,503.16331 341.25424,503.2328 341.27035,503.2395 C 341.8554,502.86618 342.37722,502.46654 342.83598,502.05535 C 342.74618,502.02051 342.65669,501.98071 342.57096,501.95101 C 342.70224,501.94673 342.83033,501.94245 342.96153,501.93811 C 343.61122,501.33424 344.11719,500.69241 344.45295,500.02303 C 344.37283,500.01367 344.29175,500.00483 344.21146,499.99542 C 344.31309,499.95671 344.41685,499.91683 344.52083,499.87575 C 344.68536,499.51928 344.80443,499.15577 344.86917,498.7848 C 344.76571,498.77879 344.66242,498.77147 344.5588,498.76581 C 344.67166,498.72587 344.77574,498.69741 344.89121,498.65354 C 344.91848,498.46005 344.93436,498.26427 344.93294,498.06745 C 344.92833,497.42772 344.76617,496.81013 344.47149,496.21683 C 344.3451,496.20258 344.20174,496.18054 344.09196,496.16794 C 343.81516,496.15398 343.53295,496.13997 343.25292,496.13286 C 343.44036,496.06419 343.62746,495.99479 343.81444,495.92508 C 343.98967,495.93787 344.15811,495.95283 344.33184,495.97214 C 343.99707,495.38206 343.53934,494.81789 342.95237,494.2878 C 342.85884,494.32788 342.76793,494.37307 342.67752,494.41472 C 342.62788,494.43353 342.57716,494.4502 342.52855,494.47063 C 342.24898,494.58813 341.79149,494.71316 341.32496,494.87183 C 341.613,494.74476 341.86725,494.63062 342.32147,494.43486 C 342.47964,494.36669 342.6505,494.26943 342.81361,494.16637 C 342.49733,493.89181 342.15054,493.62678 341.77376,493.37123 C 341.7526,493.47865 341.71467,493.58752 341.68402,493.67289 C 341.45021,494.0081 341.20405,494.27413 340.86291,494.53127 C 342.29217,495.60555 343.08552,496.81965 343.09468,498.09186 C 343.09892,498.6802 342.92774,499.26095 342.61308,499.82404 C 342.85975,499.84216 343.10431,499.85248 343.34883,499.8759 C 343.33348,499.88114 343.31831,499.88666 343.30298,499.89192 C 343.07205,499.8663 342.84492,499.84675 342.61308,499.82404 C 341.82407,501.236 340.10031,502.56964 337.56175,503.62004 C 334.35272,504.94788 334.32115,505.52396 332.72036,505.35488 C 333.35376,505.0034 327.12192,506.30032 324.42379,506.16748 C 324.11096,506.59105 323.80156,507.00892 323.45616,507.42074 C 323.49858,507.42028 323.54006,507.41962 323.58254,507.41906 z M 322.21522,507.42181 C 322.24084,507.2549 322.27342,507.09387 322.31507,506.9274 C 322.36023,506.74692 322.49159,506.39505 322.44767,506.19373 C 321.7886,506.18717 321.13383,506.16763 320.4939,506.13493 C 320.40105,506.1613 320.31083,506.1884 320.21872,506.21562 C 320.20352,506.18249 320.18732,506.1492 320.17204,506.11609 C 318.74677,506.03325 317.37877,505.88656 316.07841,505.68509 C 316.06324,505.71095 316.04844,505.73694 316.03301,505.76273 C 316.03006,505.73438 316.02373,505.7065 316.02091,505.67815 C 315.18981,505.54813 314.39518,505.39012 313.62762,505.21685 C 313.63477,505.31745 313.64353,505.44564 313.65321,505.57862 C 313.51594,505.62473 313.37638,505.66702 313.24054,505.71507 C 312.88535,505.84072 312.55718,505.99492 312.17456,506.07593 C 312.21969,506.01602 312.24049,505.9448 312.27657,505.88196 C 312.34469,505.76329 312.40767,505.64991 312.48087,505.53256 C 312.53067,505.45272 312.57916,505.37168 312.62851,505.29176 C 312.71896,505.20779 312.81121,505.12518 312.90248,505.04158 C 312.30447,504.89216 311.72509,504.73008 311.17544,504.55603 C 311.12801,504.64168 311.07533,504.72726 311.02791,504.81223 C 310.93662,504.96137 310.63832,505.46589 310.48288,505.71318 C 311.20126,505.93774 311.95511,506.1389 312.73935,506.32267 C 313.03515,506.23214 313.33491,506.14184 313.63367,506.05655 C 313.65614,506.05002 313.68004,506.04673 313.7025,506.04022 C 313.71879,506.20985 313.73317,506.37839 313.75211,506.54806 C 316.32158,507.07346 319.18317,507.38196 322.21522,507.42181 z M 310.19498,505.62455 C 310.35556,505.21625 310.5226,504.8073 310.69173,504.40066 C 310.3028,504.26898 309.92305,504.13535 309.56275,503.99192 C 309.30279,503.88844 309.05725,503.77926 308.81357,503.67058 C 308.61573,503.77 308.42485,503.86927 308.22973,503.9711 C 307.7959,504.19751 307.5853,504.30888 307.3827,504.42149 C 307.52753,504.13626 307.66388,503.85093 307.79015,503.5609 C 307.91678,503.49476 308.04116,503.42961 308.1679,503.36328 C 308.10146,503.33035 308.03687,503.29905 307.97186,503.26572 C 307.96893,503.26671 307.9633,503.26489 307.96037,503.26587 C 307.94907,503.26967 307.94379,503.2643 307.93739,503.26618 C 307.94123,503.26434 307.95539,503.26044 307.96032,503.25817 C 305.41707,501.95125 303.97515,500.33812 303.96271,498.6116 C 303.96122,498.40616 303.98886,498.20523 304.02726,498.0021 C 304.00777,497.99947 303.98929,497.99761 303.96976,497.99516 C 303.99193,497.97134 304.01612,497.94908 304.03819,497.92491 C 304.3267,496.5777 305.48129,495.29533 307.34334,494.17521 C 307.1997,494.16073 307.04831,494.16591 306.88383,494.18902 C 306.86188,494.19211 306.83652,494.19356 306.81495,494.19764 C 306.93138,494.16341 307.0461,494.12869 307.15885,494.08521 C 307.45383,493.97146 307.72812,493.87436 307.99539,493.77364 C 307.99642,493.78094 307.99383,493.78957 307.99556,493.79674 C 308.45785,493.54937 308.95147,493.31108 309.48415,493.08358 C 310.22639,492.76658 311.04068,492.47183 311.90225,492.20398 C 311.85482,492.17481 311.81052,492.14284 311.76366,492.10567 C 311.69388,492.05032 311.64142,491.99189 311.59004,491.93077 C 311.80917,491.72968 312.03269,491.51789 312.22894,491.29823 C 312.24114,491.29146 312.25103,491.28138 312.26324,491.27466 C 312.28424,491.2631 312.32726,491.24785 312.35487,491.23493 C 313.30792,491.13398 314.24968,490.99669 315.16677,490.78925 C 315.66294,490.58434 316.18841,490.39803 316.69072,490.19888 C 316.36714,490.56721 315.98125,490.93497 315.60658,491.23026 C 315.5747,491.25538 315.53607,491.27614 315.50368,491.30097 C 316.08095,491.18867 316.67654,491.09014 317.28249,490.99998 C 317.33759,490.96118 317.38833,490.92176 317.44251,490.88229 C 317.42572,490.91544 317.4086,490.95075 317.39727,490.98305 C 319.30597,490.70434 321.33847,490.53778 323.4607,490.5096 C 323.64787,490.5071 323.8378,490.51016 324.02373,490.50982 C 324.02949,490.48698 324.03924,490.46298 324.0462,490.44018 C 324.26191,490.33293 324.5223,490.19333 324.93914,489.98147 C 325.31511,489.76888 325.67824,489.54581 326.02589,489.31217 C 325.18248,489.28116 324.32153,489.27317 323.45188,489.28472 C 323.24716,489.28744 323.04633,489.29542 322.84301,489.30051 C 321.88365,489.66757 320.93892,490.05261 320.08262,490.51594 C 319.94222,490.51161 319.84003,490.48199 319.80621,490.42716 C 319.63656,490.15204 320.17881,489.67864 320.46531,489.40913 C 316.09514,489.72291 312.14916,490.58389 309.02703,491.83384 C 309.01146,492.04335 309.03296,492.25314 309.1004,492.44921 C 308.79173,492.6683 308.42433,492.96555 308.20974,493.22378 C 308.19686,493.23928 308.18711,493.25451 308.17561,493.27046 C 308.08931,493.28515 307.99914,493.29532 307.91158,493.30478 C 307.75567,493.32162 307.59809,493.30892 307.44053,493.31104 C 307.33097,493.28057 307.20086,493.27111 307.10667,493.22302 C 307.09302,493.21604 307.08493,493.20783 307.07204,493.20036 C 307.11071,493.02328 307.13726,492.8444 307.17161,492.66744 C 306.2447,493.14199 305.42495,493.6642 304.72388,494.21771 C 304.65595,494.49619 304.58804,494.77962 304.4886,495.05291 C 303.83696,495.3296 303.34618,495.60692 302.9676,496.05157 C 302.41165,496.87117 302.10646,497.73479 302.11296,498.63617 C 302.11647,499.12403 302.21283,499.60428 302.38753,500.06554 C 302.38962,500.07104 302.39702,500.07529 302.39913,500.08079 C 302.40257,500.08736 302.39631,500.09702 302.3993,500.1039 C 302.66252,500.78026 303.11124,501.42213 303.70007,502.02813 C 304.10235,502.44214 304.57614,502.83605 305.1104,503.21127 C 305.14828,503.11557 305.19097,503.01528 305.22329,502.93242 C 305.2988,502.77941 305.37336,502.62757 305.4498,502.47485 C 305.62155,502.4699 305.75336,502.49596 305.82967,502.56997 C 305.88823,502.62677 305.88501,502.70225 305.91153,502.76919 C 305.87453,503.05467 305.81294,503.33926 305.72233,503.61918 C 306.39533,504.03751 307.15166,504.42703 307.97131,504.78349 C 308.20865,504.64625 308.44503,504.49636 308.7035,504.34232 C 308.6526,504.48822 308.6038,504.63376 308.54593,504.79897 C 308.52031,504.86394 308.49293,504.92773 308.4669,504.99263 C 308.51411,505.0118 308.55759,505.03347 308.60521,505.05243 C 309.11346,505.25475 309.64167,505.44523 310.19498,505.62455 z M 343.70549,499.94051 C 343.67444,499.93692 343.64454,499.92988 343.61347,499.92632 C 343.63693,499.91628 343.65863,499.90453 343.68219,499.89459 C 343.75445,499.90452 343.75333,499.91821 343.70549,499.94051 z M 344.26469,497.81438 C 344.1835,497.80509 344.10396,497.80031 344.02319,497.78677 C 343.87098,497.73972 343.70071,497.70214 343.56252,497.6388 C 343.39191,497.56059 343.25417,497.46531 343.1468,497.35156 C 343.62604,497.44154 344.09439,497.57304 344.26469,497.81438 z M 339.99694,493.94954 C 340.88381,493.62034 341.1148,493.5243 341.60054,493.25025 C 341.13201,492.94352 340.614,492.65257 340.06605,492.37693 C 339.99078,492.436 339.91609,492.49743 339.84903,492.55701 C 339.51506,492.78584 339.35383,492.89732 339.14004,493.02869 C 338.96013,493.0979 338.79494,493.16009 338.64733,493.22014 C 338.90741,493.34411 339.15781,493.4732 339.39696,493.60311 C 339.39851,493.6013 339.39536,493.59719 339.3969,493.5954 C 339.51283,493.49064 339.61154,493.38107 339.73935,493.28268 C 339.74449,493.27873 339.75613,493.27128 339.76222,493.26696 C 339.93678,493.1887 340.11064,493.11081 340.27757,493.02899 C 340.30876,493.02169 340.33822,493.01214 340.36932,493.00466 C 340.46054,492.99061 340.56471,492.97289 340.67919,492.95432 C 340.37219,493.22094 340.01989,493.45195 339.79902,493.59006 C 339.75621,493.6129 339.69137,493.64918 339.63878,493.67694 C 339.61222,493.68286 339.58648,493.6875 339.55847,493.69342 C 339.70936,493.77795 339.855,493.8627 339.99694,493.94954 z M 338.03636,492.94319 C 338.09089,492.83259 338.16751,492.72447 338.25232,492.61674 C 338.63768,492.44031 339.00978,492.24717 339.36271,492.03958 C 339.06694,491.90571 338.76581,491.77589 338.45218,491.65104 C 338.24909,491.57019 338.04052,491.49001 337.83,491.41276 C 337.19855,491.66036 336.83558,491.85208 336.33107,492.28786 C 336.72899,492.42205 337.11526,492.56526 337.48315,492.7117 C 337.6731,492.78731 337.85507,492.86476 338.03636,492.94319 z M 335.27158,491.95524 C 335.90804,491.7172 336.53324,491.45973 337.0928,491.16061 C 335.6041,490.66327 333.95319,490.25619 332.17773,489.94696 C 332.20785,490.01293 332.18809,490.09524 332.12201,490.18654 C 331.61159,490.39569 331.10852,490.61442 330.59839,490.82312 C 330.51904,490.85559 330.44633,490.89127 330.36933,490.92632 C 331.51864,491.0864 332.61476,491.28958 333.6484,491.52994 C 333.72697,491.33869 333.83222,491.15089 333.96609,490.97101 C 334.16296,490.94274 334.36449,490.92016 334.56309,490.90144 C 334.49755,490.9693 334.43018,491.03568 334.3691,491.08892 C 334.17981,491.25395 333.96754,491.40228 333.75196,491.55168 C 334.04843,491.62161 334.32985,491.70303 334.61537,491.77904 C 335.00452,491.56857 335.39435,491.35662 335.75968,491.12439 C 335.57963,491.34307 335.11592,491.60375 334.71899,491.80848 C 334.90243,491.85803 335.09293,491.90325 335.27158,491.95524 z M 330.00129,490.87728 C 330.03719,490.86112 330.05578,490.85428 330.09292,490.83754 C 330.32633,490.73235 331.02716,490.30993 330.9606,490.06329 C 330.94368,490.00055 330.87318,489.95316 330.81008,489.90349 C 330.99331,489.87721 331.17665,489.85439 331.36111,489.83454 C 331.37253,489.83436 331.46293,489.83539 331.51047,489.83256 C 330.4835,489.67123 329.4218,489.54328 328.32493,489.45112 C 328.33993,489.61617 328.21157,489.82119 328.15604,489.93104 C 328.047,490.08065 327.93029,490.22087 327.81441,490.35932 C 327.53135,490.46965 327.36353,490.53705 327.19572,490.60637 C 328.15846,490.66914 329.09452,490.75922 330.00129,490.87728 z M 326.8854,490.59509 C 326.9341,490.47523 326.96515,490.35456 327.03221,490.23873 C 327.20326,489.94327 327.45013,489.66137 327.7386,489.40498 C 327.31977,489.37499 326.88969,489.34894 326.46264,489.32948 C 325.85623,489.63589 325.35668,490.00329 324.966,490.52042 C 325.617,490.53188 326.25365,490.55812 326.8854,490.59509 z M 321.01196,490.32639 C 320.98102,490.31615 321.39114,490.18174 321.72246,490.06271 C 321.64673,490.09859 321.56992,490.13058 321.49339,490.16591 C 321.3587,490.21481 321.22532,490.26579 321.09233,490.31763 C 321.04949,490.32681 321.01779,490.32833 321.01196,490.32639 z M 322.21526,489.88667 C 322.36294,489.83656 322.48974,489.78915 322.60495,489.75052 C 322.57859,489.7786 322.55094,489.808 322.52514,489.83633 C 322.4801,489.8486 322.43237,489.85615 322.38749,489.86898 C 322.33086,489.87046 322.26869,489.87723 322.21526,489.88667 z"
         style="fill:#990000;fill-opacity:1;fill-rule:nonzero;stroke:none;stroke-width:6.0280323;stroke-linecap:round;stroke-linejoin:round;stroke-miterlimit:4;stroke-opacity:1"
         sodipodi:nodetypes="ccccccccccccscsccccccccccsccccccsscsccccsccccscccccscccccscccscsscccsccscccccscscccssscscsccsssccscsccscccsccccsccccsccscccscscscccccssssscccsccccscsccsccccsccccccccsssscscsscccccsccscccccsccccsccccccsscscccccccsccccccccccccsc" />
    </g>
    <g
       id="g2819"
       transform="matrix(2.4881008,0,0,2.4881008,-467.87762,-784.72072)">
      <text
         sodipodi:linespacing="100%"
         id="text2450"
         y="434.92886"
         x="335.19974"
         style="font-size:18.62950706px;font-style:normal;font-variant:normal;font-weight:bold;font-stretch:normal;text-align:end;line-height:100%;writing-mode:lr-tb;text-anchor:end;fill:#980101;fill-opacity:1;stroke:none;stroke-width:1px;stroke-linecap:butt;stroke-linejoin:miter;stroke-opacity:1;font-family:Calibri;-inkscape-font-specification:Calibri Bold"
         xml:space="preserve"><tspan
           id="tspan2452"
           y="434.92886"
           x="335.19974"
           sodipodi:role="line"
           style="font-size:18.62950706px;font-style:normal;font-variant:normal;font-weight:bold;font-stretch:normal;text-align:end;line-height:100%;writing-mode:lr-tb;text-anchor:end;fill:#980101;fill-opacity:1;font-family:Calibri;-inkscape-font-specification:Calibri Bold">Staff</tspan></text>
      <path
         transform="matrix(0.7860263,0.270228,-0.270228,0.7860263,211.69584,323.73831)"
         d="M 204.12498,67.631889 L 200.93481,67.169858 L 198.74565,69.535912 L 198.19925,66.359104 L 195.27251,65.008234 L 198.12499,63.50689 L 198.50533,60.305952 L 200.81465,62.554878 L 203.97646,61.92746 L 202.55122,64.818717 L 204.12498,67.631889 z"
         inkscape:randomized="0"
         inkscape:rounded="0"
         inkscape:flatsided="false"
         sodipodi:arg2="1.2306059"
         sodipodi:arg1="0.60228735"
         sodipodi:r2="2.4270606"
         sodipodi:r1="4.8541217"
         sodipodi:cy="64.881889"
         sodipodi:cx="200.12498"
         sodipodi:sides="5"
         id="path2458"
         style="fill:#980101;fill-opacity:1;fill-rule:nonzero;stroke:none;stroke-width:0.2;stroke-linecap:round;stroke-linejoin:miter;stroke-miterlimit:4;stroke-dasharray:none;stroke-opacity:1"
         sodipodi:type="star" />
      <path
         sodipodi:type="star"
         style="fill:#980101;fill-opacity:1;fill-rule:nonzero;stroke:none;stroke-width:0.2;stroke-linecap:round;stroke-linejoin:miter;stroke-miterlimit:4;stroke-dasharray:none;stroke-opacity:1"
         id="path2462"
         sodipodi:sides="5"
         sodipodi:cx="200.12498"
         sodipodi:cy="64.881889"
         sodipodi:r1="4.8541217"
         sodipodi:r2="2.4270606"
         sodipodi:arg1="0.60228735"
         sodipodi:arg2="1.2306059"
         inkscape:flatsided="false"
         inkscape:rounded="0"
         inkscape:randomized="0"
         d="M 204.12498,67.631889 L 200.93481,67.169858 L 198.74565,69.535912 L 198.19925,66.359104 L 195.27251,65.008234 L 198.12499,63.50689 L 198.50533,60.305952 L 200.81465,62.554878 L 203.97646,61.92746 L 202.55122,64.818717 L 204.12498,67.631889 z"
         transform="matrix(0.7860264,0.270228,-0.270228,0.7860264,143.62704,323.73773)" />
    </g>
    <rect
       style="opacity:0.66000001;fill:#000000;fill-opacity:1;fill-rule:nonzero;stroke:none;stroke-width:10;stroke-linecap:round;stroke-linejoin:round;stroke-miterlimit:4;stroke-dasharray:10, 10;stroke-dashoffset:9.99999644;stroke-opacity:1"
       id="rect3969"
       width="0"
       height="8"
       x="572.86975"
       y="1509.2343" />
    <rect
       inkscape:export-ydpi="292.34"
       inkscape:export-xdpi="292.34"
       inkscape:export-filename="D:\agile france\shadow-color-normal-512x512.png"
       y="388.43771"
       x="94.463905"
       height="180.31438"
       width="180.31438"
       id="rect8814"
       style="fill:#ffffff;fill-opacity:0;fill-rule:nonzero;stroke:none;stroke-width:4.35378695;stroke-linecap:round;stroke-linejoin:round;stroke-miterlimit:4;stroke-dasharray:none;stroke-dashoffset:9.99999644;stroke-opacity:1"
       transform="matrix(0.9514842,-0.3076976,0.3076976,0.9514842,0,0)" />
    <text
       sodipodi:linespacing="125%"
       id="text8816"
       y="458.49292"
       x="113.69415"
       style="font-size:58.89794922px;font-style:normal;font-variant:normal;font-weight:normal;font-stretch:normal;text-align:start;line-height:125%;writing-mode:lr-tb;text-anchor:start;fill:#000000;fill-opacity:1;stroke:none;stroke-width:1px;stroke-linecap:butt;stroke-linejoin:miter;stroke-opacity:1;font-family:Bitstream Vera Sans;-inkscape-font-specification:Bitstream Vera Sans"
       xml:space="preserve"
       transform="matrix(0.9514842,-0.3076976,0.3076976,0.9514842,0,0)"><tspan
         style="font-size:58.89794922px;font-style:normal;font-variant:normal;font-weight:normal;font-stretch:normal;text-align:start;line-height:125%;writing-mode:lr-tb;text-anchor:start;font-family:Bitstream Vera Sans;-inkscape-font-specification:Bitstream Vera Sans"
         y="458.49292"
         x="113.69415"
         id="tspan8818"
         sodipodi:role="line">agile</tspan></text>
    <text
       id="text8820"
       y="543.06635"
       x="110.21082"
       style="font-size:26.77679253px;font-style:normal;font-variant:normal;font-weight:normal;font-stretch:normal;text-align:start;line-height:125%;writing-mode:lr-tb;text-anchor:start;fill:#000000;fill-opacity:1;stroke:none;stroke-width:1px;stroke-linecap:butt;stroke-linejoin:miter;stroke-opacity:1;font-family:Bitstream Vera Sans;-inkscape-font-specification:Bitstream Vera Sans"
       xml:space="preserve"
       sodipodi:linespacing="125%"
       transform="matrix(0.9514842,-0.3076976,0.3076976,0.9514842,0,0)"><tspan
         style="font-size:26.77679253px;font-style:normal;font-variant:normal;font-weight:normal;font-stretch:normal;text-align:start;line-height:125%;writing-mode:lr-tb;text-anchor:start;font-family:Bitstream Vera Sans;-inkscape-font-specification:Bitstream Vera Sans"
         y="543.06635"
         x="110.21082"
         id="tspan8822"
         sodipodi:role="line">conférence</tspan></text>
    <path
       transform="matrix(0.8635879,-0.2792731,0.2792731,0.8635879,146.73997,310.60362)"
       sodipodi:nodetypes="ccscscsc"
       style="fill:#7c7c7c;fill-opacity:1;stroke:#7c7c7c;stroke-width:2.97424245;stroke-linecap:round;stroke-linejoin:round;stroke-miterlimit:4;stroke-dasharray:none;stroke-opacity:1;filter:url(#filter3651)"
       id="path8824"
       d="M 71.552417,144.09886 L 117.18934,144.95603 C 117.18934,144.95603 116.50385,151.976 117.22893,161.34629 C 117.655,166.85241 119.75925,177.71827 119.75925,177.71827 C 119.75925,177.71827 107.82514,179.57288 100.21935,180.05359 C 90.909257,180.64199 72.229847,179.79199 72.229847,179.79199 C 72.229847,179.79199 70.885577,172.56345 70.748637,167.04481 C 70.461237,155.46114 71.203307,144.08002 71.552417,144.09886 z" />
    <path
       sodipodi:nodetypes="ccscscsc"
       style="fill:url(#linearGradient8836);fill-opacity:1;stroke:#000000;stroke-width:2.67478538;stroke-linecap:round;stroke-linejoin:round;stroke-miterlimit:4;stroke-dasharray:none;stroke-opacity:1"
       id="path8826"
       d="M 247.94231,413.34526 L 287.89195,402.30674 C 287.89195,402.30674 289.05046,408.48432 292.02469,416.30719 C 293.77243,420.90403 298.32154,429.64954 298.32154,429.64954 C 298.32154,429.64954 288.3945,434.31308 281.89233,436.68583 C 273.93337,439.59015 257.45705,443.68154 257.45705,443.68154 C 257.45705,443.68154 254.47904,437.84926 252.97999,433.16716 C 249.83329,423.33939 247.63361,413.41921 247.94231,413.34526 z" />
    <path
       transform="matrix(0.8635879,-0.2792731,0.2792731,0.8635879,146.73997,310.60362)"
       d="M 133.8218,154.53176 L 178.51473,157.69878 C 178.51473,157.69878 177.47766,164.67501 177.70115,174.06995 C 177.83248,179.59056 179.33016,190.54899 179.33016,190.54899 C 179.33016,190.54899 167.53482,191.7969 160.05391,191.89186 C 150.89673,192.00806 132.62966,190.21327 132.62966,190.21327 C 132.62966,190.21327 131.68779,182.92596 131.84056,177.4075 C 132.16124,165.82418 133.48055,154.49528 133.8218,154.53176 z"
       id="path8828"
       style="fill:#7c7c7c;fill-opacity:1;stroke:#7c7c7c;stroke-width:2.94684792;stroke-linecap:round;stroke-linejoin:round;stroke-miterlimit:4;stroke-dasharray:none;stroke-opacity:1;filter:url(#filter3639)"
       sodipodi:nodetypes="ccscscsc" />
    <path
       sodipodi:nodetypes="ccscscsc"
       style="fill:url(#linearGradient8838);fill-opacity:1;stroke:#000000;stroke-width:2.67478538;stroke-linecap:round;stroke-linejoin:round;stroke-miterlimit:4;stroke-dasharray:none;stroke-opacity:1"
       id="path8830"
       d="M 304.10482,404.97305 L 344.65354,396.39231 C 344.65354,396.39231 345.43292,402.62906 347.92447,410.61879 C 349.38844,415.3137 353.39554,424.32049 353.39554,424.32049 C 353.39554,424.32049 343.20248,428.36971 336.56772,430.34132 C 328.44639,432.75468 311.75102,435.83333 311.75102,435.83333 C 311.75102,435.83333 309.13441,429.8302 307.92385,425.06532 C 305.38254,415.06392 303.79226,405.02799 304.10482,404.97305 z" />
    <path
       d="M 370.67289,257.61591 L 415.87172,253.50835 C 415.87172,253.50835 415.95635,260.52105 417.69031,269.70354 C 418.70921,275.09933 421.96865,285.61027 421.96865,285.61027 C 421.96865,285.61027 410.37481,288.73898 402.90972,290.03984 C 393.77189,291.63218 375.21759,292.82007 375.21759,292.82007 C 375.21759,292.82007 373.10416,285.82161 372.36968,280.38207 C 370.828,268.96443 370.32579,257.63519 370.67289,257.61591 z"
       id="path8832"
       style="fill:#7c7c7c;fill-opacity:1;stroke:#7c7c7c;stroke-width:4;stroke-linecap:round;stroke-linejoin:round;stroke-miterlimit:4;stroke-dasharray:none;stroke-opacity:1;filter:url(#filter3635)"
       sodipodi:nodetypes="ccscscsc"
       transform="matrix(0.8369452,-0.2471257,0.2487049,0.8422936,-22.891737,257.14237)" />
    <path
       d="M 350.12314,380.65583 L 388.76531,365.66901 C 388.76531,365.66901 390.53717,371.69935 394.28052,379.18469 C 396.48017,383.58323 401.88278,391.82883 401.88278,391.82883 C 401.88278,391.82883 392.47307,397.46384 386.24149,400.47628 C 378.61369,404.16367 362.63032,409.88581 362.63032,409.88581 C 362.63032,409.88581 359.08284,404.38131 357.12202,399.87304 C 353.00625,390.41009 349.82335,380.76036 350.12314,380.65583 z"
       id="path8834"
       style="fill:url(#linearGradient8840);fill-opacity:1;stroke:#000000;stroke-width:2.67478538;stroke-linecap:round;stroke-linejoin:round;stroke-miterlimit:4;stroke-dasharray:none;stroke-opacity:1"
       sodipodi:nodetypes="ccscscsc" />
  </g>
</svg>
