<?xml version="1.0" encoding="UTF-8" standalone="no"?>
<!-- Created with Inkscape (http://www.inkscape.org/) -->

<svg
   xmlns:dc="http://purl.org/dc/elements/1.1/"
   xmlns:cc="http://creativecommons.org/ns#"
   xmlns:rdf="http://www.w3.org/1999/02/22-rdf-syntax-ns#"
   xmlns:svg="http://www.w3.org/2000/svg"
   xmlns="http://www.w3.org/2000/svg"
   xmlns:xlink="http://www.w3.org/1999/xlink"
   xmlns:sodipodi="http://sodipodi.sourceforge.net/DTD/sodipodi-0.dtd"
   xmlns:inkscape="http://www.inkscape.org/namespaces/inkscape"
   width="744.09448819"
   height="1052.3622047"
   id="svg2"
   version="1.1"
   inkscape:version="0.48.3.1 r9886"
   sodipodi:docname="questionnaire_session.svg"
   sodipodi:version="0.32"
   inkscape:output_extension="org.inkscape.output.svg.inkscape"
   inkscape:export-filename="D:\agile-france-badge\gitrepo\agile-france-publicity\questionnaire_session.png"
   inkscape:export-xdpi="300.01077"
   inkscape:export-ydpi="300.01077">
  <defs
     id="defs4">
    <inkscape:perspective
       sodipodi:type="inkscape:persp3d"
       inkscape:vp_x="0 : 526.18109 : 1"
       inkscape:vp_y="0 : 1000 : 0"
       inkscape:vp_z="744.09448 : 526.18109 : 1"
       inkscape:persp3d-origin="372.04724 : 350.78739 : 1"
       id="perspective83" />
    <linearGradient
       id="linearGradient3430">
      <stop
         style="stop-color:#ffffff;stop-opacity:1;"
         offset="0"
         id="stop3432" />
      <stop
         style="stop-color:#ffffff;stop-opacity:0.208;"
         offset="1"
         id="stop3434" />
    </linearGradient>
    <linearGradient
       inkscape:collect="always"
       xlink:href="#linearGradient3430"
       id="linearGradient3436"
       x1="541.46869"
       y1="303.22351"
       x2="545.08148"
       y2="224.10426"
       gradientUnits="userSpaceOnUse" />
    <filter
       id="filter3651"
       inkscape:collect="always"
       color-interpolation-filters="sRGB">
      <feGaussianBlur
         id="feGaussianBlur3653"
         stdDeviation="1.139826"
         inkscape:collect="always" />
    </filter>
    <linearGradient
       id="linearGradient8154">
      <stop
         id="stop8156"
         offset="0"
         style="stop-color:#3b75bb;stop-opacity:1;" />
      <stop
         id="stop8158"
         offset="1"
         style="stop-color:#2e5b94;stop-opacity:1;" />
    </linearGradient>
    <filter
       id="filter3639"
       inkscape:collect="always"
       color-interpolation-filters="sRGB">
      <feGaussianBlur
         id="feGaussianBlur3641"
         stdDeviation="1.1345707"
         inkscape:collect="always" />
    </filter>
    <linearGradient
       id="linearGradient8178">
      <stop
         style="stop-color:#f7f7ff;stop-opacity:1;"
         offset="0"
         id="stop8180" />
      <stop
         style="stop-color:#e7e7ff;stop-opacity:1;"
         offset="1"
         id="stop8182" />
    </linearGradient>
    <filter
       id="filter3635"
       inkscape:collect="always"
       color-interpolation-filters="sRGB">
      <feGaussianBlur
         id="feGaussianBlur3637"
         stdDeviation="1.2339038"
         inkscape:collect="always" />
    </filter>
    <linearGradient
       id="linearGradient8164">
      <stop
         id="stop8166"
         offset="0"
         style="stop-color:#ea0000;stop-opacity:1;" />
      <stop
         id="stop8168"
         offset="1"
         style="stop-color:#c80000;stop-opacity:1;" />
    </linearGradient>
    <linearGradient
       inkscape:collect="always"
       xlink:href="#linearGradient8164"
       id="linearGradient3115"
       gradientUnits="userSpaceOnUse"
       gradientTransform="matrix(0.30395781,-0.08889865,0.08889865,0.30395781,443.31319,-9.4342189)"
       x1="530.68823"
       y1="575.30054"
       x2="556.8103"
       y2="662.04608" />
    <linearGradient
       inkscape:collect="always"
       xlink:href="#linearGradient8178"
       id="linearGradient3119"
       gradientUnits="userSpaceOnUse"
       gradientTransform="matrix(0.31429494,-0.03888538,0.03888538,0.31429494,428.10597,-21.668451)"
       x1="530.68823"
       y1="575.30054"
       x2="556.8103"
       y2="662.04608" />
    <linearGradient
       inkscape:collect="always"
       xlink:href="#linearGradient8154"
       id="linearGradient3123"
       gradientUnits="userSpaceOnUse"
       gradientTransform="matrix(0.31133698,-0.0579873,0.0579873,0.31133698,451.43372,-20.600143)"
       x1="285.32883"
       y1="574.29041"
       x2="310.02237"
       y2="661.03595" />
  </defs>
  <sodipodi:namedview
     id="base"
     pagecolor="#ffffff"
     bordercolor="#666666"
     borderopacity="1.0"
     inkscape:pageopacity="0.0"
     inkscape:pageshadow="2"
     inkscape:zoom="0.4395578"
     inkscape:cx="271.92744"
     inkscape:cy="523.19499"
     inkscape:document-units="px"
     inkscape:current-layer="layer1"
     showgrid="false"
     inkscape:window-width="1440"
     inkscape:window-height="876"
     inkscape:window-x="0"
     inkscape:window-y="24"
     inkscape:window-maximized="1"
     inkscape:object-paths="false"
     inkscape:snap-bbox="true"
     showguides="true"
     inkscape:guide-bbox="true">
    <inkscape:grid
       type="xygrid"
       id="grid2816"
       visible="true"
       enabled="true" />
  </sodipodi:namedview>
  <metadata
     id="metadata7">
    <rdf:RDF>
      <cc:Work
         rdf:about="">
        <dc:format>image/svg+xml</dc:format>
        <dc:type
           rdf:resource="http://purl.org/dc/dcmitype/StillImage" />
        <dc:title />
      </cc:Work>
    </rdf:RDF>
  </metadata>
  <g
     inkscape:label="Layer 1"
     inkscape:groupmode="layer"
     id="layer1">
    <rect
       style="opacity:1;fill:#bf210d;fill-opacity:1"
       id="rect3146"
       width="640"
       height="80"
       x="52.047241"
       y="32.362183"
       ry="11.428572"
       rx="11.428572" />
    <flowRoot
       xml:space="preserve"
       id="flowRoot2818"
       style="font-size:56px;font-style:normal;font-variant:normal;font-weight:bold;font-stretch:normal;text-align:start;line-height:125%;writing-mode:lr;text-anchor:start;fill:#ffffff;fill-opacity:1;stroke:none;font-family:DejaVu Sans;-inkscape-font-specification:DejaVu Sans Bold"
       transform="translate(161.46912,-6.256037)"><flowRegion
         id="flowRegion2820"><rect
           id="rect2822"
           width="620"
           height="117.14286"
           x="51.42857"
           y="55.219326"
           style="font-size:56px;font-style:normal;font-variant:normal;font-weight:bold;font-stretch:normal;text-align:start;line-height:125%;writing-mode:lr;text-anchor:start;fill:#ffffff;fill-opacity:1;font-family:DejaVu Sans;-inkscape-font-specification:DejaVu Sans Bold" /></flowRegion><flowPara
         id="flowPara2824"
         style="font-size:56px;font-style:normal;font-variant:normal;font-weight:bold;font-stretch:normal;text-align:start;line-height:125%;writing-mode:lr;text-anchor:start;fill:#ffffff;fill-opacity:1;font-family:DejaVu Sans;-inkscape-font-specification:DejaVu Sans Bold">Votre avis</flowPara></flowRoot>    <flowRoot
       xml:space="preserve"
       id="flowRoot2826"
       style="font-size:36px;font-style:normal;font-variant:normal;font-weight:normal;font-stretch:normal;text-align:start;line-height:125%;writing-mode:lr-tb;text-anchor:start;fill:#001430;fill-opacity:1;stroke:none;font-family:DejaVu Sans;-inkscape-font-specification:DejaVu Sans"
       transform="translate(122.06353,252.08731)"><flowRegion
         id="flowRegion2828"><rect
           id="rect2830"
           width="645.71429"
           height="505.71429"
           x="48.57143"
           y="500.93362"
           style="font-size:36px;font-style:normal;font-variant:normal;font-weight:normal;font-stretch:normal;text-align:start;line-height:125%;writing-mode:lr-tb;text-anchor:start;fill:#001430;fill-opacity:1;font-family:DejaVu Sans;-inkscape-font-specification:DejaVu Sans" /></flowRegion><flowPara
         id="flowPara2832"
         style="font-size:36px;font-style:normal;font-variant:normal;font-weight:normal;font-stretch:normal;text-align:start;line-height:125%;writing-mode:lr-tb;text-anchor:start;fill:#001430;fill-opacity:1;font-family:DejaVu Sans;-inkscape-font-specification:DejaVu Sans">Pour que ça soit parfait:</flowPara></flowRoot>    <rect
       style="fill:url(#linearGradient3436);fill-opacity:1;fill-rule:nonzero;stroke:none"
       id="rect3377"
       width="144.25552"
       height="142.14357"
       x="478.6857"
       y="260.57828"
       rx="10.250358"
       ry="10.250358"
       transform="matrix(0.95075227,-0.30995179,0.30995179,0.95075227,0,0)" />
    <rect
       style="fill:#f9f9f9"
       id="rect2984"
       width="0"
       height="119.99999"
       x="1080"
       y="332.36218"
       ry="8.5714283" />
    <rect
       style="fill:#deeaf5;fill-opacity:1"
       id="rect3061"
       width="541.63098"
       height="200"
       x="151.11076"
       y="800.25659"
       ry="20"
       rx="16.925968" />
    <flowRoot
       xml:space="preserve"
       id="flowRoot3063"
       style="fill:black;stroke:none;stroke-opacity:1;stroke-width:1px;stroke-linejoin:miter;stroke-linecap:butt;fill-opacity:1;font-family:Bitstream Vera Sans;font-style:normal;font-weight:normal;font-size:40px"><flowRegion
         id="flowRegion3065"><rect
           id="rect3067"
           width="320"
           height="60"
           x="97.14286"
           y="169.50504" /></flowRegion><flowPara
         id="flowPara3069" /></flowRoot>    <flowRoot
       xml:space="preserve"
       id="flowRoot3071"
       style="fill:black;stroke:none;stroke-opacity:1;stroke-width:1px;stroke-linejoin:miter;stroke-linecap:butt;fill-opacity:1;font-family:Bitstream Vera Sans;font-style:normal;font-weight:normal;font-size:40px"><flowRegion
         id="flowRegion3073"><rect
           id="rect3075"
           width="40"
           height="80"
           x="242.85715"
           y="215.21933" /></flowRegion><flowPara
         id="flowPara3077" /></flowRoot>    <flowRoot
       xml:space="preserve"
       id="flowRoot3087"
       style="fill:black;stroke:none;stroke-opacity:1;stroke-width:1px;stroke-linejoin:miter;stroke-linecap:butt;fill-opacity:1;font-family:Bitstream Vera Sans;font-style:normal;font-weight:normal;font-size:40px"><flowRegion
         id="flowRegion3089"><rect
           id="rect3091"
           width="342.85715"
           height="48.57143"
           x="77.14286"
           y="295.21933" /></flowRegion><flowPara
         id="flowPara3093" /></flowRoot>    <text
       xml:space="preserve"
       style="font-size:36px;font-style:normal;font-variant:normal;font-weight:normal;font-stretch:normal;text-align:start;line-height:125%;writing-mode:lr-tb;text-anchor:start;fill:#001430;fill-opacity:1;stroke:none;font-family:DejaVu Sans;-inkscape-font-specification:DejaVu Sans"
       x="172.48932"
       y="479.22083"
       id="text3095"
       sodipodi:linespacing="125%"><tspan
         sodipodi:role="line"
         id="tspan3097"
         x="172.48932"
         y="479.22083"
         style="font-size:36px;font-style:normal;font-variant:normal;font-weight:normal;font-stretch:normal;text-align:start;line-height:125%;writing-mode:lr-tb;text-anchor:start;fill:#001430;fill-opacity:1;font-family:DejaVu Sans;-inkscape-font-specification:DejaVu Sans">J'ai aimé:</tspan></text>
    <rect
       style="fill:#deeaf5;fill-opacity:1"
       id="rect3061-7"
       width="541.63086"
       height="200"
       x="151.11076"
       y="493.79074"
       ry="14.285714"
       rx="12.089974" />
    <g
       id="g3425"
       transform="translate(2.6088389,0)">
      <rect
         ry="8.6198015"
         rx="8.6198015"
         y="37.563709"
         x="58.569298"
         height="69.596924"
         width="69.596924"
         id="rect3373"
         style="fill:#c1c3c8;fill-opacity:1;fill-rule:nonzero;stroke:#1f2f4d;stroke-width:2;stroke-linecap:round;stroke-linejoin:round;stroke-miterlimit:4;stroke-dasharray:none;stroke-opacity:1" />
      <path
         sodipodi:nodetypes="ccccccc"
         id="path3375"
         d="M 69.55287,40.569099 L 117.18264,40.569099 C 121.52683,40.569099 125.02414,44.066409 125.02414,48.410589 L 125.02414,64.753699 C 113.0312,76.746629 74.01467,77.056979 61.711383,64.753699 L 61.711383,48.410589 C 61.711383,44.066409 65.208693,40.569099 69.55287,40.569099 z"
         style="fill:#ffffff;fill-opacity:1;fill-rule:nonzero;stroke:none;stroke-width:4.54853296;stroke-linecap:round;stroke-linejoin:round;stroke-miterlimit:4;stroke-opacity:1" />
      <path
         sodipodi:nodetypes="cccccccccccc"
         id="rect3272"
         d="M 78.37651,52.249301 L 108.35901,52.249301 C 112.07319,52.249301 115.0633,55.239411 115.0633,58.953591 L 115.0633,72.362171 C 115.0633,76.076341 112.07319,79.066461 108.35901,79.066461 L 105.28163,79.289931 L 105.33291,92.475041 L 92.92081,79.066461 L 78.37651,79.066461 C 74.66234,79.066461 71.67222,76.076341 71.67222,72.362171 L 71.67222,58.953591 C 71.67222,55.239411 74.66234,52.249301 78.37651,52.249301 z"
         style="fill:#ffffff;fill-opacity:1;fill-rule:nonzero;stroke:#1f2f4d;stroke-width:4.46999979;stroke-linecap:round;stroke-linejoin:round;stroke-miterlimit:4;stroke-dasharray:none;stroke-opacity:1" />
    </g>
    <g
       id="g3406"
       transform="translate(1.9525241,60)">
      <rect
         ry="8.6198015"
         rx="8.6198015"
         y="681.06335"
         x="59.225613"
         height="69.596924"
         width="69.596924"
         id="rect3299"
         style="fill:#c1c3c8;fill-opacity:1;fill-rule:nonzero;stroke:#1f2f4d;stroke-width:2;stroke-linecap:round;stroke-linejoin:round;stroke-miterlimit:4;stroke-opacity:1;stroke-dasharray:none" />
      <path
         sodipodi:nodetypes="ccccccc"
         id="path3301"
         d="m 70.209175,684.46431 47.629785,0 c 4.34419,0 7.8415,3.49731 7.8415,7.84149 l 0,16.34311 c -11.99294,11.99293 -51.009486,12.30328 -63.312776,0 l 0,-16.34311 c 0,-4.34418 3.49731,-7.84149 7.841491,-7.84149 z"
         style="fill:#ffffff;fill-opacity:1;fill-rule:nonzero;stroke:none"
         inkscape:connector-curvature="0" />
      <path
         sodipodi:nodetypes="ccsc"
         id="path3305"
         d="m 118.2454,726.61302 -48.442653,0 c 0,-13.37017 10.851155,-24.22132 24.221334,-24.22132 13.370169,0 24.221319,10.85115 24.221319,24.22132 z"
         style="fill:#ffffff;fill-opacity:1;fill-rule:nonzero;stroke:#1f2f4d;stroke-width:4.46999979;stroke-linecap:round;stroke-linejoin:round;stroke-miterlimit:4;stroke-opacity:1;stroke-dasharray:none"
         inkscape:connector-curvature="0" />
      <path
         sodipodi:nodetypes="csscc"
         id="path3308"
         d="m 96.004331,728.26724 c -0.87196,1.17074 -2.5298,1.41325 -3.700545,0.54129 -1.170743,-0.87195 -1.413239,-2.52979 -0.541281,-3.70054 0.871952,-1.17075 13.587145,-16.25961 14.757885,-15.38766 1.17074,0.87195 -9.644109,17.37616 -10.516059,18.54691 z"
         style="fill:#ffffff;fill-opacity:1;fill-rule:nonzero;stroke:#1f2f4d;stroke-width:4.46999979;stroke-linecap:round;stroke-linejoin:round;stroke-miterlimit:4;stroke-opacity:1;stroke-dasharray:none"
         inkscape:connector-curvature="0" />
    </g>
    <rect
       style="opacity:1;fill:#c1c3c8;fill-opacity:1;fill-rule:nonzero;stroke:none;stroke-width:4.46999979;stroke-linecap:round;stroke-linejoin:round;stroke-miterlimit:4;stroke-dasharray:none;stroke-opacity:1"
       id="rect3355"
       width="117.1777"
       height="66.670067"
       x="-155.90596"
       y="-0.29306915"
       rx="11.428572"
       ry="11.428572" />
    <rect
       style="opacity:1;fill:#001430;fill-opacity:1;fill-rule:nonzero;stroke:none;stroke-width:4.46999979;stroke-linecap:round;stroke-linejoin:round;stroke-miterlimit:4;stroke-dasharray:none;stroke-opacity:1"
       id="rect3357"
       width="117.178"
       height="66.669998"
       x="-155.90611"
       y="74.80928"
       rx="11.047647"
       ry="11.785702" />
    <rect
       style="opacity:1;fill:#1f2f4d;fill-opacity:1;fill-rule:nonzero;stroke:none;stroke-width:4.46999979;stroke-linecap:round;stroke-linejoin:round;stroke-miterlimit:4;stroke-dasharray:none;stroke-opacity:1"
       id="rect3359"
       width="117.178"
       height="66.669998"
       x="-155.90611"
       y="149.91154"
       rx="10.521569"
       ry="8.5714197" />
    <rect
       style="opacity:1;fill:#deeaf5;fill-opacity:1;fill-rule:nonzero;stroke:none;stroke-width:4.46999979;stroke-linecap:round;stroke-linejoin:round;stroke-miterlimit:4;stroke-dasharray:none;stroke-opacity:1"
       id="rect3361"
       width="117.178"
       height="66.669998"
       x="-155.90611"
       y="225.01385"
       rx="9.0802584"
       ry="7.6967854" />
    <rect
       style="opacity:1;fill:#bf210d;fill-opacity:1;fill-rule:nonzero;stroke:none;stroke-width:4.46999979;stroke-linecap:round;stroke-linejoin:round;stroke-miterlimit:4;stroke-dasharray:none;stroke-opacity:1"
       id="rect3363"
       width="117.178"
       height="66.669998"
       x="-155.90611"
       y="300.11609"
       rx="9.0802584"
       ry="8.9795828" />
    <path
       inkscape:connector-curvature="0"
       style="fill:#ffffff;fill-opacity:1;fill-rule:nonzero;stroke:none"
       d="m 73.669877,435.31078 47.629793,0 c 4.34419,0 7.8415,3.49731 7.8415,7.84149 l 0,16.34311 c -11.99294,11.99293 -51.009493,12.30328 -63.312783,0 l 0,-16.34311 c 0,-4.34418 3.49731,-7.84149 7.84149,-7.84149 z"
       id="path3284"
       sodipodi:nodetypes="ccccccc" />
    <rect
       style="fill:#c1c3c8;fill-opacity:1;fill-rule:nonzero;stroke:#1f2f4d;stroke-width:2;stroke-linecap:round;stroke-linejoin:round;stroke-miterlimit:4;stroke-opacity:1;stroke-dasharray:none"
       id="rect3369"
       width="69.596924"
       height="69.596924"
       x="61.178135"
       y="433.83643"
       rx="8.6198015"
       ry="8.6198015" />
    <path
       inkscape:connector-curvature="0"
       style="fill:#ffffff;fill-opacity:1;fill-rule:nonzero;stroke:none"
       d="m 72.161703,437.29778 47.629787,0 c 4.34419,0 7.8415,3.49731 7.8415,7.84149 l 0,16.34311 c -11.99294,11.99293 -51.009488,12.30328 -63.312778,0 l 0,-16.34311 c 0,-4.34418 3.49731,-7.84149 7.841491,-7.84149 z"
       id="path3371"
       sodipodi:nodetypes="ccccccc" />
    <path
       inkscape:connector-curvature="0"
       style="fill:#ffffff;fill-opacity:1;fill-rule:nonzero;stroke:#1f2f4d;stroke-width:4.94899988;stroke-linecap:round;stroke-linejoin:round;stroke-miterlimit:4;stroke-opacity:1;stroke-dasharray:none"
       d="m 96.021028,455.37487 c -2.044251,-3.11845 -3.918629,-7.92937 -10.083838,-7.92937 -6.31528,0 -11.416504,5.10122 -11.416504,11.4165 0,4.50262 3.564364,10.27212 6.396803,13.10454 l 15.414489,17.85772 15.192382,-18.07983 c 2.61908,-2.61907 5.90815,-8.57513 5.90815,-12.88243 0,-6.31528 -5.10121,-11.4165 -11.4165,-11.4165 -5.53502,0 -7.938352,4.88596 -9.994982,7.92937 z"
       id="path3288"
       sodipodi:nodetypes="ccscccssc" />
    <text
       xml:space="preserve"
       style="font-size:6px;font-style:normal;font-variant:normal;font-weight:normal;font-stretch:normal;text-align:start;line-height:125%;writing-mode:lr-tb;text-anchor:start;fill:#001430;fill-opacity:1;stroke:none;font-family:Bitstream Vera Sans;-inkscape-font-specification:Bitstream Vera Sans"
       x="-1027.2218"
       y="738.17737"
       id="text3499"
       transform="matrix(0,-1,1,0,0,0)"
       sodipodi:linespacing="125%"><tspan
         sodipodi:role="line"
         id="tspan3501"
         x="-1027.2218"
         y="738.17737">Agile France 2012 - questionnaire session</tspan></text>
    <text
       xml:space="preserve"
       style="font-size:12px;font-style:normal;font-variant:normal;font-weight:normal;font-stretch:normal;text-align:start;line-height:125%;writing-mode:lr-tb;text-anchor:start;fill:#000000;fill-opacity:1;stroke:none;stroke-width:1px;stroke-linecap:butt;stroke-linejoin:miter;stroke-opacity:1;font-family:Bitstream Vera Sans;-inkscape-font-specification:Bitstream Vera Sans"
       x="-359.31009"
       y="387.71857"
       id="text2453"
       sodipodi:linespacing="125%"><tspan
         sodipodi:role="line"
         id="tspan2455"
         x="-359.31009"
         y="387.71857">palette from:</tspan><tspan
         sodipodi:role="line"
         x="-359.31009"
         y="402.71857"
         id="tspan2457">http://www.colourlovers.com/palette/99630/July_14th</tspan></text>
    <g
       id="g3236"
       transform="translate(-0.7972518,57.596711)">
      <path
         id="path2456"
         d="m 175.42653,471.62957 494.59383,0"
         style="fill:none;stroke:#ffffff;stroke-width:3;stroke-linecap:round;stroke-linejoin:miter;stroke-miterlimit:4;stroke-opacity:1;stroke-dasharray:none"
         inkscape:connector-curvature="0" />
      <path
         style="fill:none;stroke:#ffffff;stroke-width:3;stroke-linecap:round;stroke-linejoin:miter;stroke-miterlimit:4;stroke-opacity:1;stroke-dasharray:none"
         d="m 175.42653,507.9118 494.59383,0"
         id="path3228"
         inkscape:connector-curvature="0" />
      <path
         id="path3230"
         d="m 175.42653,544.19402 494.59383,0"
         style="fill:none;stroke:#ffffff;stroke-width:3;stroke-linecap:round;stroke-linejoin:miter;stroke-miterlimit:4;stroke-opacity:1;stroke-dasharray:none"
         inkscape:connector-curvature="0" />
      <path
         style="fill:none;stroke:#ffffff;stroke-width:3;stroke-linecap:round;stroke-linejoin:miter;stroke-miterlimit:4;stroke-opacity:1;stroke-dasharray:none"
         d="m 175.42653,580.47626 494.59383,0"
         id="path3232"
         inkscape:connector-curvature="0" />
      <path
         id="path3234"
         d="m 175.42653,616.75849 494.59383,0"
         style="fill:none;stroke:#ffffff;stroke-width:3;stroke-linecap:round;stroke-linejoin:miter;stroke-miterlimit:4;stroke-opacity:1;stroke-dasharray:none"
         inkscape:connector-curvature="0" />
    </g>
    <g
       id="g3243"
       transform="translate(-1.120383,366.03967)">
      <path
         id="path3245"
         d="m 175.42653,471.62957 494.59383,0"
         style="fill:none;stroke:#ffffff;stroke-width:3;stroke-linecap:round;stroke-linejoin:miter;stroke-miterlimit:4;stroke-opacity:1;stroke-dasharray:none"
         inkscape:connector-curvature="0" />
      <path
         style="fill:none;stroke:#ffffff;stroke-width:3;stroke-linecap:round;stroke-linejoin:miter;stroke-miterlimit:4;stroke-opacity:1;stroke-dasharray:none"
         d="m 175.42653,507.9118 494.59383,0"
         id="path3247"
         inkscape:connector-curvature="0" />
      <path
         id="path3249"
         d="m 175.42653,544.19402 494.59383,0"
         style="fill:none;stroke:#ffffff;stroke-width:3;stroke-linecap:round;stroke-linejoin:miter;stroke-miterlimit:4;stroke-opacity:1;stroke-dasharray:none"
         inkscape:connector-curvature="0" />
      <path
         style="fill:none;stroke:#ffffff;stroke-width:3;stroke-linecap:round;stroke-linejoin:miter;stroke-miterlimit:4;stroke-opacity:1;stroke-dasharray:none"
         d="m 175.42653,580.47626 494.59383,0"
         id="path3251"
         inkscape:connector-curvature="0" />
      <path
         id="path3253"
         d="m 175.42653,616.75849 494.59383,0"
         style="fill:none;stroke:#ffffff;stroke-width:3;stroke-linecap:round;stroke-linejoin:miter;stroke-miterlimit:4;stroke-opacity:1;stroke-dasharray:none"
         inkscape:connector-curvature="0" />
    </g>
    <path
       style="fill:#ffffff;fill-opacity:1;fill-rule:nonzero;stroke:none"
       d="m 72.836882,323.53322 47.629788,0 c 4.34419,0 7.8415,3.49731 7.8415,7.84149 l 0,16.34311 c -11.99294,11.99293 -51.009488,12.30328 -63.312778,0 l 0,-16.34311 c 0,-4.34418 3.49731,-7.84149 7.84149,-7.84149 z"
       id="path3284-3"
       sodipodi:nodetypes="ccccccc"
       inkscape:connector-curvature="0" />
    <rect
       style="fill:#c1c3c8;fill-opacity:1;fill-rule:nonzero;stroke:#1f2f4d;stroke-width:2;stroke-linecap:round;stroke-linejoin:round;stroke-miterlimit:4;stroke-opacity:1;stroke-dasharray:none"
       id="rect3369-8"
       width="69.596924"
       height="69.596924"
       x="60.345142"
       y="322.05887"
       rx="8.6198015"
       ry="8.6198015" />
    <path
       style="fill:#ffffff;fill-opacity:1;fill-rule:nonzero;stroke:none"
       d="m 71.328708,325.52022 47.629782,0 c 4.34419,0 7.8415,3.49731 7.8415,7.84149 l 0,16.34311 c -11.99294,11.99293 -51.009483,12.30328 -63.312773,0 l 0,-16.34311 c 0,-4.34418 3.49731,-7.84149 7.841491,-7.84149 z"
       id="path3371-8"
       sodipodi:nodetypes="ccccccc"
       inkscape:connector-curvature="0" />
    <text
       xml:space="preserve"
       style="font-size:40px;font-style:normal;font-variant:normal;font-weight:normal;font-stretch:semi-condensed;text-align:start;line-height:125%;writing-mode:lr-tb;text-anchor:start;fill:#001430;fill-opacity:1;stroke:none;font-family:DejaVu Sans;-inkscape-font-specification:DejaVu Sans Semi-Condensed"
       x="296.75253"
       y="316.28915"
       id="text3095-7-5"
       sodipodi:linespacing="125%"><tspan
         sodipodi:role="line"
         id="tspan3097-3-7"
         x="296.75253"
         y="316.28915"
         style="font-size:20px;font-style:normal;font-variant:normal;font-weight:normal;font-stretch:normal;text-align:start;line-height:125%;writing-mode:lr-tb;text-anchor:start;fill:#001430;fill-opacity:1;font-family:DejaVu Sans;-inkscape-font-specification:DejaVu Sans" /></text>
    <text
       xml:space="preserve"
       style="font-size:40px;font-style:normal;font-variant:normal;font-weight:normal;font-stretch:semi-condensed;text-align:start;line-height:125%;writing-mode:lr-tb;text-anchor:start;fill:#001430;fill-opacity:1;stroke:none;font-family:DejaVu Sans;-inkscape-font-specification:DejaVu Sans Semi-Condensed"
       x="400.20142"
       y="317.64075"
       id="text3095-7-5-5"
       sodipodi:linespacing="125%"><tspan
         sodipodi:role="line"
         id="tspan3097-3-7-3"
         x="400.20142"
         y="317.64075"
         style="font-size:20px;font-style:normal;font-variant:normal;font-weight:normal;font-stretch:normal;text-align:start;line-height:125%;writing-mode:lr-tb;text-anchor:start;fill:#001430;fill-opacity:1;font-family:DejaVu Sans;-inkscape-font-specification:DejaVu Sans" /></text>
    <text
       xml:space="preserve"
       style="font-size:40px;font-style:normal;font-variant:normal;font-weight:normal;font-stretch:semi-condensed;text-align:start;line-height:125%;writing-mode:lr-tb;text-anchor:start;fill:#001430;fill-opacity:1;stroke:none;font-family:DejaVu Sans;-inkscape-font-specification:DejaVu Sans Semi-Condensed"
       x="157.97668"
       y="194.57593"
       id="text3095-7-8"
       sodipodi:linespacing="125%"><tspan
         sodipodi:role="line"
         id="tspan3097-3-4"
         x="157.97668"
         y="194.57593"
         style="font-size:20px;font-style:normal;font-variant:normal;font-weight:normal;font-stretch:normal;text-align:start;line-height:125%;writing-mode:lr-tb;text-anchor:start;fill:#001430;fill-opacity:1;font-family:DejaVu Sans;-inkscape-font-specification:DejaVu Sans" /></text>
    <g
       id="g4439"
       transform="translate(7.3144532e-6,114)">
      <path
         sodipodi:nodetypes="ccccsssscsssscccccc"
         inkscape:connector-curvature="0"
         id="rect4218"
         d="m 417.04267,229.63192 c -1.92119,0.0335 -3.64523,1.94252 -4.67081,4.50424 -0.4886,4.79202 -1.59405,9.38344 -4.24062,12.31434 -1.7741,0.88726 -3.02848,2.45371 -3.19582,4.50424 l -0.67604,0 c -2.12202,0 -3.83089,2.54527 -3.83089,5.70261 l 0,3.09925 c 0,3.15734 1.70887,5.70261 3.83089,5.70261 l 0.81944,0 c 2.16562,1.25032 2.83751,4.0564 5.46978,4.27696 l 15.78189,1.32235 c 3.11972,0.2614 7.65415,-2.52461 7.65415,-5.68195 l 0,-16.61197 c 0,-3.15734 -2.55714,-6.16325 -5.65415,-5.70261 l -10.26351,1.52896 2.21249,-8.30598 c 0.81024,-3.04975 0.93349,-5.65388 -1.31111,-6.26047 l -1.08576,-0.28927 c -0.28057,-0.0758 -0.56547,-0.10809 -0.83993,-0.10331 z"
         style="fill:none;stroke:#1f2f4d;stroke-width:5;stroke-miterlimit:4;stroke-opacity:1" />
    </g>
    <g
       id="g4435"
       transform="translate(7.446289e-6,108.2461)">
      <path
         sodipodi:nodetypes="ccccsssscsssscccccc"
         inkscape:connector-curvature="0"
         id="rect4218-9"
         d="m 219.70272,276.82899 c 1.92119,-0.0335 3.64523,-1.94252 4.67081,-4.50424 0.4886,-4.79202 1.59405,-9.38344 4.24062,-12.31434 1.7741,-0.88726 3.02848,-2.45371 3.19582,-4.50424 l 0.67604,0 c 2.12202,0 3.83089,-2.54527 3.83089,-5.70261 l 0,-3.09925 c 0,-3.15734 -1.70887,-5.70261 -3.83089,-5.70261 l -0.81944,0 c -2.16562,-1.25032 -2.83751,-4.0564 -5.46978,-4.27696 l -15.78189,-1.32235 c -3.11972,-0.2614 -7.65415,2.52461 -7.65415,5.68195 l 0,16.61197 c 0,3.15734 2.55714,6.16325 5.65415,5.70261 l 10.26351,-1.52896 -2.21249,8.30598 c -0.81024,3.04975 -0.93349,5.65388 1.31111,6.26047 l 1.08576,0.28927 c 0.28057,0.0758 0.56547,0.10809 0.83993,0.10331 z"
         style="fill:none;stroke:#1f2f4d;stroke-width:5;stroke-miterlimit:4;stroke-opacity:1" />
      <rect
         transform="scale(-1,-1)"
         y="-253.76601"
         x="-234.9922"
         height="10.806315"
         width="0.92422432"
         id="rect4255-2"
         style="fill:none;stroke:#1f2f4d;stroke-width:5;stroke-linecap:butt;stroke-linejoin:round;stroke-miterlimit:4;stroke-opacity:1;stroke-dasharray:none;stroke-dashoffset:0" />
    </g>
    <path
       style="fill:#ffffff;fill-opacity:1;fill-rule:nonzero;stroke:none"
       d="m 61.868784,579.67257 47.629796,0 c 4.34419,0 7.8415,3.49731 7.8415,7.84149 l 0,16.34311 c -11.99294,11.99293 -51.009496,12.30328 -63.312786,0 l 0,-16.34311 c 0,-4.34418 3.49731,-7.84149 7.84149,-7.84149 z"
       id="path3284-9"
       sodipodi:nodetypes="ccccccc"
       inkscape:connector-curvature="0" />
    <g
       id="g4442"
       transform="translate(-3.4969215,105.98994)">
      <g
         transform="translate(0,4)"
         id="g4427">
        <path
           sodipodi:type="arc"
           style="fill:none;stroke:#1f2f4d;stroke-width:5;stroke-linecap:butt;stroke-linejoin:round;stroke-miterlimit:4;stroke-opacity:1;stroke-dasharray:none;stroke-dashoffset:0"
           id="path4383"
           sodipodi:cx="360.54486"
           sodipodi:cy="315.78894"
           sodipodi:rx="21.516064"
           sodipodi:ry="21.516064"
           d="m 382.06092,315.78894 c 0,11.88299 -9.63307,21.51606 -21.51606,21.51606 -11.88299,0 -21.51606,-9.63307 -21.51606,-21.51606 0,-11.88299 9.63307,-21.51606 21.51606,-21.51606 11.88299,0 21.51606,9.63307 21.51606,21.51606 z"
           transform="translate(-38.675232,-61.42537)" />
        <path
           transform="matrix(0.07009348,0,0,0.07009348,289.86145,225.69355)"
           sodipodi:type="arc"
           style="fill:none;stroke:#1f2f4d;stroke-width:28.5333252;stroke-linecap:butt;stroke-linejoin:round;stroke-miterlimit:4;stroke-opacity:1;stroke-dasharray:none;stroke-dashoffset:0"
           id="path4383-9"
           sodipodi:cx="360.54486"
           sodipodi:cy="315.78894"
           sodipodi:rx="21.516064"
           sodipodi:ry="21.516064"
           d="m 382.06092,315.78894 c 0,11.88299 -9.63307,21.51606 -21.51606,21.51606 -11.88299,0 -21.51606,-9.63307 -21.51606,-21.51606 0,-11.88299 9.63307,-21.51606 21.51606,-21.51606 11.88299,0 21.51606,9.63307 21.51606,21.51606 z" />
        <path
           transform="matrix(0.09345797,0,0,0.09345797,295.71452,220.72833)"
           sodipodi:type="arc"
           style="fill:none;stroke:#1f2f4d;stroke-width:21.3999939;stroke-linecap:butt;stroke-linejoin:round;stroke-miterlimit:4;stroke-opacity:1;stroke-dasharray:none;stroke-dashoffset:0"
           id="path4383-9-6"
           sodipodi:cx="360.54486"
           sodipodi:cy="315.78894"
           sodipodi:rx="21.516064"
           sodipodi:ry="21.516064"
           d="m 382.06092,315.78894 c 0,11.88299 -9.63307,21.51606 -21.51606,21.51606 -11.88299,0 -21.51606,-9.63307 -21.51606,-21.51606 0,-11.88299 9.63307,-21.51606 21.51606,-21.51606 11.88299,0 21.51606,9.63307 21.51606,21.51606 z" />
      </g>
      <path
         sodipodi:nodetypes="cc"
         inkscape:connector-curvature="0"
         id="path4433"
         d="m 314.01324,267.97214 c 8.09109,-0.38344 15.47097,-1.8818 21.35667,-5.7225"
         style="fill:none;stroke:#1f2f4d;stroke-width:2;stroke-linecap:round;stroke-linejoin:miter;stroke-miterlimit:4;stroke-opacity:1;stroke-dasharray:none" />
    </g>
    <path
       style="font-size:68.51829529px;font-style:normal;font-weight:normal;line-height:125%;letter-spacing:0px;word-spacing:0px;fill:#ffffff;fill-opacity:1;stroke:#1f2f4d;stroke-width:5;stroke-linecap:round;stroke-linejoin:round;stroke-miterlimit:4;stroke-opacity:1;stroke-dasharray:none;font-family:Sans"
       d="m 94.8125,330.875 c -8.743765,-3.9e-4 -17.500503,7.94462 -16.1875,16.90625 3.627829,1.62664 10.199562,2.37041 10.28125,-3 2.4915,-7.22111 17.34339,-6.05695 15.875,2.6875 -1.74651,7.64588 -12.743304,8.8258 -14.03125,17.03125 -1.977864,4.54976 2.351509,6.75828 6.5625,5.53125 4.16512,-0.23961 2.29024,-6.33756 6.25,-7.84375 7.12655,-3.95047 13.58487,-11.55779 10.90625,-20.21875 -2.0335,-8.63183 -11.70073,-11.92361 -19.65625,-11.09375 z m -4.28125,41.71875 c -2.303588,5.94951 0.0895,12.58072 7.5,10.0625 4.55863,-0.98878 3.97321,-13.1624 -2.46875,-10.75 -1.719867,0.10464 -3.52989,-0.40409 -5.03125,0.6875 z"
       id="text3943-1"
       inkscape:connector-curvature="0" />
    <rect
       style="fill:none;stroke:none"
       id="rect4149"
       width="159.25"
       height="159.25"
       x="544.02698"
       y="72.883186"
       rx="0"
       ry="0"
       inkscape:export-filename="/media/DATA/agile-france-2012/logo-agile-france-2012.png"
       inkscape:export-xdpi="90"
       inkscape:export-ydpi="90" />
    <g
       id="g3132">
      <rect
         ry="6.7378755"
         rx="6.7378755"
         y="197.63547"
         x="619.22894"
         height="26.861946"
         width="66.686653"
         id="rect4147"
         style="fill:none;stroke:#c50000;stroke-width:2.91819382;stroke-miterlimit:4;stroke-opacity:1;stroke-dasharray:none" />
      <text
         transform="matrix(0.96592583,-0.25881902,0.25881902,0.96592583,0,0)"
         sodipodi:linespacing="125%"
         id="text4131"
         y="276.08749"
         x="504.40588"
         style="font-size:52.50258636px;font-style:normal;font-variant:normal;font-weight:normal;font-stretch:normal;text-align:start;line-height:125%;writing-mode:lr-tb;text-anchor:start;fill:#000000;fill-opacity:1;stroke:none;font-family:WhatDoWeDoAllDay;-inkscape-font-specification:WhatDoWeDoAllDay"
         xml:space="preserve"><tspan
           style="font-size:52.50258636px;font-style:normal;font-variant:normal;font-weight:normal;font-stretch:normal;text-align:start;line-height:125%;writing-mode:lr-tb;text-anchor:start;stroke:none;font-family:WhatDoWeDoAllDay;-inkscape-font-specification:WhatDoWeDoAllDay"
           y="276.08749"
           x="504.40588"
           id="tspan4133"
           sodipodi:role="line">agile</tspan></text>
      <text
         transform="matrix(0.96195655,-0.27320248,0.27320248,0.96195655,0,0)"
         x="499.30493"
         y="355.51199"
         inkscape:export-ydpi="90"
         inkscape:export-xdpi="90"
         inkscape:export-filename="/home/ericlemerdy/workspace/agile-france-static-page/www/images/text4135.png"
         id="text4135"
         style="font-size:38.2542763px;font-style:normal;font-variant:normal;font-weight:normal;font-stretch:normal;text-align:start;line-height:125%;writing-mode:lr;text-anchor:start;fill:#000000;fill-opacity:1;stroke:#000000;stroke-width:1.08752691999999995;stroke-miterlimit:4;stroke-opacity:1;stroke-dasharray:none;font-family:WhatDoWeDoAllDay;-inkscape-font-specification:WhatDoWeDoAllDay"
         xml:space="preserve"
         sodipodi:linespacing="125%"><tspan
           style="font-size:38.2542763px;font-style:normal;font-variant:normal;font-weight:normal;font-stretch:normal;text-align:start;line-height:125%;writing-mode:lr;text-anchor:start;stroke:#000000;stroke-width:1.08752691999999995;stroke-miterlimit:4;stroke-opacity:1;stroke-dasharray:none;font-family:WhatDoWeDoAllDay;-inkscape-font-specification:WhatDoWeDoAllDay"
           id="tspan4137">france</tspan></text>
      <path
         transform="matrix(0.72659735,-0.19469117,0.19469117,0.72659735,477.89738,56.567519)"
         sodipodi:nodetypes="ccscscsc"
         style="fill:#7c7c7c;fill-opacity:1;stroke:#7c7c7c;stroke-width:2.97424245;stroke-linecap:round;stroke-linejoin:round;stroke-miterlimit:4;stroke-opacity:1;stroke-dasharray:none;filter:url(#filter3651)"
         id="path4139"
         d="m 71.552417,144.09886 45.636923,0.85717 c 0,0 -0.68549,7.01997 0.0396,16.39026 0.42607,5.50612 2.53032,16.37198 2.53032,16.37198 0,0 -11.93411,1.85461 -19.5399,2.33532 -9.310093,0.5884 -27.989503,-0.2616 -27.989503,-0.2616 0,0 -1.34427,-7.22854 -1.48121,-12.74718 -0.2874,-11.58367 0.45467,-22.96479 0.80378,-22.94595 z"
         inkscape:connector-curvature="0" />
      <path
         sodipodi:nodetypes="ccscscsc"
         style="fill:url(#linearGradient3123);fill-opacity:1;stroke:#000000;stroke-width:2.21683836;stroke-linecap:round;stroke-linejoin:round;stroke-miterlimit:4;stroke-opacity:1;stroke-dasharray:none"
         id="path4141"
         d="m 557.32551,145.88182 33.53303,-7.44978 c 0,0 0.69804,5.1622 2.82952,11.76289 1.25253,3.87868 4.64859,11.30957 4.64859,11.30957 0,0 -8.4137,3.44087 -13.89583,5.13027 -6.7104,2.06785 -20.52084,4.75861 -20.52084,4.75861 0,0 -2.21867,-4.95322 -3.26176,-8.89197 -2.18954,-8.26747 -3.59135,-16.57143 -3.33271,-16.61959 z"
         inkscape:connector-curvature="0" />
      <path
         transform="matrix(0.72659735,-0.19469117,0.19469117,0.72659735,477.89738,56.567519)"
         d="m 133.8218,154.53176 44.69293,3.16702 c 0,0 -1.03707,6.97623 -0.81358,16.37117 0.13133,5.52061 1.62901,16.47904 1.62901,16.47904 0,0 -11.79534,1.24791 -19.27625,1.34287 -9.15718,0.1162 -27.42425,-1.67859 -27.42425,-1.67859 0,0 -0.94187,-7.28731 -0.7891,-12.80577 0.32068,-11.58332 1.63999,-22.91222 1.98124,-22.87574 z"
         id="path4143"
         style="fill:#7c7c7c;fill-opacity:1;stroke:#7c7c7c;stroke-width:2.94684792;stroke-linecap:round;stroke-linejoin:round;stroke-miterlimit:4;stroke-opacity:1;stroke-dasharray:none;filter:url(#filter3639)"
         sodipodi:nodetypes="ccscscsc"
         inkscape:connector-curvature="0" />
      <path
         sodipodi:nodetypes="ccscscsc"
         style="fill:url(#linearGradient3119);fill-opacity:1;stroke:#000000;stroke-width:2.21683836;stroke-linecap:round;stroke-linejoin:round;stroke-miterlimit:4;stroke-opacity:1;stroke-dasharray:none"
         id="path4145"
         d="m 604.16558,141.32361 33.92511,-5.39012 c 0,0 0.38175,5.19516 2.10665,11.91359 1.01346,3.94787 3.9499,11.57212 3.9499,11.57212 0,0 -8.60793,2.92116 -14.18288,4.27292 -6.82407,1.65466 -20.77307,3.49788 -20.77307,3.49788 0,0 -1.91231,-5.07938 -2.7131,-9.07445 -1.68115,-8.38562 -2.57365,-16.75965 -2.31261,-16.79194 z"
         inkscape:connector-curvature="0" />
      <path
         d="m 370.67289,257.61591 45.19883,-4.10756 c 0,0 0.0846,7.0127 1.81859,16.19519 1.0189,5.39579 4.27834,15.90673 4.27834,15.90673 0,0 -11.59384,3.12871 -19.05893,4.42957 -9.13783,1.59234 -27.69213,2.78023 -27.69213,2.78023 0,0 -2.11343,-6.99846 -2.84791,-12.438 -1.54168,-11.41764 -2.04389,-22.74688 -1.69679,-22.76616 z"
         id="path4147"
         style="fill:#7c7c7c;fill-opacity:1;stroke:#7c7c7c;stroke-width:4;stroke-linecap:round;stroke-linejoin:round;stroke-miterlimit:4;stroke-opacity:1;stroke-dasharray:none;filter:url(#filter3635)"
         sodipodi:nodetypes="ccscscsc"
         transform="matrix(0.70318738,-0.16920743,0.17028871,0.70768093,339.74827,5.1537328)"
         inkscape:connector-curvature="0" />
      <path
         d="m 643.28247,123.13913 32.61756,-10.77304 c 0,0 1.21195,5.06622 3.99426,11.42003 1.63497,3.73361 5.75858,10.78676 5.75858,10.78676 0,0 -8.0265,4.26683 -13.31169,6.49713 -6.46934,2.73 -19.94065,6.79136 -19.94065,6.79136 0,0 -2.70386,-4.70596 -4.13647,-8.52032 -3.0071,-8.00642 -5.23414,-16.12805 -4.98159,-16.20192 z"
         id="path4149"
         style="fill:url(#linearGradient3115);fill-opacity:1;stroke:#000000;stroke-width:2.21683836;stroke-linecap:round;stroke-linejoin:round;stroke-miterlimit:4;stroke-opacity:1;stroke-dasharray:none"
         sodipodi:nodetypes="ccscscsc"
         inkscape:connector-curvature="0" />
      <text
         sodipodi:linespacing="125%"
         id="text3373"
         y="220.0416"
         x="624.21381"
         style="font-size:25.60670853px;font-style:normal;font-variant:normal;font-weight:bold;font-stretch:normal;text-align:start;line-height:125%;letter-spacing:0px;word-spacing:0px;writing-mode:lr-tb;text-anchor:start;fill:#c50000;fill-opacity:1;stroke:none;font-family:FreeSans;-inkscape-font-specification:FreeSans Bold"
         xml:space="preserve"><tspan
           style="font-size:25.60670853px;font-style:normal;font-variant:normal;font-weight:bold;font-stretch:normal;text-align:start;line-height:125%;writing-mode:lr-tb;text-anchor:start;fill:#c50000;fill-opacity:1;font-family:FreeSans;-inkscape-font-specification:FreeSans Bold"
           y="220.0416"
           x="624.21381"
           id="tspan3375"
           sodipodi:role="line">2012</tspan></text>
      <path
         sodipodi:nodetypes="cc"
         inkscape:connector-curvature="0"
         id="path3802"
         d="m 570.54046,195.90016 c 27.69474,7.42079 108.21918,-21.46901 124.65071,-37.90054"
         style="fill:none;stroke:none" />
    </g>
    <rect
       style="fill:#deeaf5;fill-opacity:1"
       id="rect3061-7-8"
       width="541.63086"
       height="53.830372"
       x="152.33711"
       y="246.35193"
       ry="14.285714"
       rx="12.089974" />
    <path
       style="fill:none;stroke:#ffffff;stroke-width:3;stroke-linecap:round;stroke-linejoin:miter;stroke-miterlimit:4;stroke-opacity:1;stroke-dasharray:none"
       d="m 175.85562,280.74676 494.59383,0"
       id="path3234-0"
       inkscape:connector-curvature="0" />
    <text
       xml:space="preserve"
       style="font-size:36px;font-style:normal;font-variant:normal;font-weight:normal;font-stretch:normal;text-align:start;line-height:125%;writing-mode:lr-tb;text-anchor:start;fill:#001430;fill-opacity:1;stroke:none;font-family:DejaVu Sans;-inkscape-font-specification:DejaVu Sans"
       x="168.25299"
       y="233.57669"
       id="text3095-8"
       sodipodi:linespacing="125%"><tspan
         sodipodi:role="line"
         id="tspan3097-8"
         x="168.25299"
         y="233.57669"
         style="font-size:36px;font-style:normal;font-variant:normal;font-weight:normal;font-stretch:normal;text-align:start;line-height:125%;writing-mode:lr-tb;text-anchor:start;fill:#001430;fill-opacity:1;font-family:DejaVu Sans;-inkscape-font-specification:DejaVu Sans">Session:</tspan></text>
    <path
       inkscape:connector-curvature="0"
       sodipodi:nodetypes="ccccccc"
       id="path3175"
       d="m 72.836882,203.53322 47.629788,0 c 4.34419,0 7.8415,3.49731 7.8415,7.84149 l 0,16.34311 c -11.99294,11.99293 -51.009488,12.30328 -63.312778,0 l 0,-16.34311 c 0,-4.34418 3.49731,-7.84149 7.84149,-7.84149 z"
       style="fill:#ffffff;fill-opacity:1;fill-rule:nonzero;stroke:none" />
    <rect
       ry="8.6198015"
       rx="8.6198015"
       y="202.05887"
       x="60.345142"
       height="69.596924"
       width="69.596924"
       id="rect3177"
       style="fill:#c1c3c8;fill-opacity:1;fill-rule:nonzero;stroke:#1f2f4d;stroke-width:2;stroke-linecap:round;stroke-linejoin:round;stroke-miterlimit:4;stroke-opacity:1;stroke-dasharray:none" />
    <path
       inkscape:connector-curvature="0"
       sodipodi:nodetypes="ccccccc"
       id="path3179"
       d="m 71.328708,205.52022 47.629782,0 c 4.34419,0 7.8415,3.49731 7.8415,7.84149 l 0,16.34311 c -11.99294,11.99293 -51.009483,12.30328 -63.312773,0 l 0,-16.34311 c 0,-4.34418 3.49731,-7.84149 7.841491,-7.84149 z"
       style="fill:#ffffff;fill-opacity:1;fill-rule:nonzero;stroke:none" />
    <path
       sodipodi:type="arc"
       style="fill:#ffffff;fill-opacity:1;stroke:#1f2f4d;stroke-width:6.1555829;stroke-miterlimit:4;stroke-opacity:1;stroke-dasharray:none"
       id="path3207"
       sodipodi:cx="95.550575"
       sodipodi:cy="233.64165"
       sodipodi:rx="23.603268"
       sodipodi:ry="23.603268"
       d="m 119.15384,233.64165 a 23.603268,23.603268 0 1 1 -47.206532,0 23.603268,23.603268 0 1 1 47.206532,0 z"
       transform="matrix(0.63647651,-0.36746988,0.43975904,0.761685,-67.726771,93.920412)" />
    <path
       transform="matrix(0.35895663,-0.2088756,0.24801296,0.43295361,3.5902829,155.57198)"
       d="m 119.15384,233.64165 a 23.603268,23.603268 0 1 1 -47.206532,0 23.603268,23.603268 0 1 1 47.206532,0 z"
       sodipodi:ry="23.603268"
       sodipodi:rx="23.603268"
       sodipodi:cy="233.64165"
       sodipodi:cx="95.550575"
       id="path3977"
       style="fill:#ffffff;fill-opacity:1;stroke:#1f2f4d;stroke-width:10.87192345;stroke-miterlimit:4;stroke-opacity:1;stroke-dasharray:none"
       sodipodi:type="arc" />
    <path
       sodipodi:type="arc"
       style="fill:#1f2f4d;fill-opacity:1;stroke:none"
       id="path3979"
       sodipodi:cx="95.550575"
       sodipodi:cy="233.64165"
       sodipodi:rx="23.603268"
       sodipodi:ry="23.603268"
       d="m 119.15384,233.64165 a 23.603268,23.603268 0 1 1 -47.206532,0 23.603268,23.603268 0 1 1 47.206532,0 z"
       transform="matrix(0.1369461,-0.08326047,0.0946198,0.1725808,60.642547,204.40331)" />
  </g>
</svg>
